<?xml version="1.0" encoding="UTF-8"?> <svg xmlns="http://www.w3.org/2000/svg" width="46" height="41" viewBox="0 0 46 41" fill="none"><path d="M8.12185 28.9101C9.03263 28.349 9.68375 27.4497 9.93247 26.4093C10.1812 25.3688 10.0072 24.2722 9.44867 23.3599L8.87367 22.4176C8.82434 22.3371 8.75962 22.267 8.68321 22.2115C8.60679 22.156 8.52018 22.1161 8.42833 22.094C8.33648 22.072 8.24119 22.0683 8.1479 22.0831C8.05461 22.098 7.96516 22.131 7.88467 22.1804L6.94239 22.7554C6.38524 23.0973 5.91953 23.5695 5.58536 24.1313C5.25118 24.6931 5.05855 25.3277 5.02404 25.9805C4.80208 25.8808 4.57164 25.8012 4.33548 25.7426C3.82013 25.6186 3.28537 25.5976 2.7619 25.6809C2.23843 25.7642 1.73656 25.95 1.2851 26.2277L0.342823 26.8027C0.262328 26.8521 0.192355 26.9169 0.136902 26.9933C0.081449 27.0697 0.0416036 27.1564 0.0196429 27.2482C-0.00231775 27.3401 -0.00596305 27.4353 0.00891536 27.5286C0.0237938 27.6219 0.0569042 27.7113 0.106354 27.7917L0.681354 28.7326C0.957213 29.1864 1.32051 29.581 1.75014 29.8933C2.17978 30.2056 2.66718 30.4294 3.18404 30.5517C3.49461 30.6259 3.81278 30.6635 4.13207 30.6638C4.87466 30.6634 5.6025 30.4566 6.23442 30.0666L8.12185 28.9101ZM7.6906 23.9838L8.02051 23.7811L8.22248 24.111C8.58218 24.6985 8.69415 25.4047 8.5338 26.0747C8.37345 26.7446 7.95389 27.3236 7.36717 27.6846L7.03726 27.8873L6.83529 27.5581C6.47555 26.9705 6.36357 26.2642 6.52391 25.5941C6.68426 24.924 7.10383 24.3449 7.6906 23.9838ZM5.4826 28.8411C5.19186 29.0197 4.86876 29.1393 4.53177 29.1929C4.19479 29.2466 3.85053 29.2333 3.51869 29.1538C3.18685 29.0743 2.87394 28.9301 2.59785 28.7296C2.32177 28.5291 2.08792 28.2761 1.9097 27.9851L1.70701 27.6559L2.03692 27.4532C2.32781 27.2748 2.651 27.1554 2.98804 27.1019C3.32507 27.0484 3.66934 27.0618 4.00119 27.1413C4.33304 27.2209 4.64597 27.365 4.92211 27.5656C5.19824 27.7661 5.43217 28.019 5.61054 28.3099L5.81251 28.6391L5.4826 28.8411Z" fill="black"></path><path d="M3.95312 20.8438H6.10938C7.15746 20.8426 8.16229 20.4258 8.9034 19.6846C9.6445 18.9435 10.0614 17.9387 10.0625 16.8906V15.8125C10.0625 15.6219 9.98677 15.4391 9.85198 15.3043C9.71719 15.1695 9.53437 15.0938 9.34375 15.0938H8.26562C7.6306 15.0946 7.00512 15.2484 6.44212 15.5421C5.87912 15.8359 5.39518 16.261 5.03125 16.7814C4.66732 16.261 4.18338 15.8359 3.62038 15.5421C3.05738 15.2484 2.4319 15.0946 1.79688 15.0938H0.71875C0.528126 15.0938 0.345309 15.1695 0.210517 15.3043C0.0757252 15.4391 0 15.6219 0 15.8125L0 16.8906C0.0011415 17.9387 0.417997 18.9435 1.1591 19.6846C1.90021 20.4258 2.90504 20.8426 3.95312 20.8438ZM8.26562 16.5312H8.625V16.8906C8.625 17.5578 8.35996 18.1977 7.88819 18.6694C7.41642 19.1412 6.77656 19.4062 6.10938 19.4062H5.75V19.0469C5.75 18.3797 6.01504 17.7398 6.48681 17.2681C6.95858 16.7963 7.59844 16.5312 8.26562 16.5312ZM1.4375 16.5312H1.79688C2.46406 16.5312 3.10392 16.7963 3.57569 17.2681C4.04746 17.7398 4.3125 18.3797 4.3125 19.0469V19.4062H3.95312C3.28594 19.4062 2.64608 19.1412 2.17431 18.6694C1.70254 18.1977 1.4375 17.5578 1.4375 16.8906V16.5312Z" fill="black"></path><path d="M3.95312 13.6562H6.10938C7.15746 13.6551 8.16229 13.2383 8.9034 12.4971C9.6445 11.756 10.0614 10.7512 10.0625 9.70312V8.625C10.0625 8.43438 9.98677 8.25156 9.85198 8.11677C9.71719 7.98198 9.53437 7.90625 9.34375 7.90625H8.26562C7.6306 7.90708 7.00512 8.06089 6.44212 8.35465C5.87912 8.64841 5.39518 9.07347 5.03125 9.59387C4.66732 9.07347 4.18338 8.64841 3.62038 8.35465C3.05738 8.06089 2.4319 7.90708 1.79688 7.90625H0.71875C0.528126 7.90625 0.345309 7.98198 0.210517 8.11677C0.0757252 8.25156 0 8.43438 0 8.625L0 9.70312C0.0011415 10.7512 0.417997 11.756 1.1591 12.4971C1.90021 13.2383 2.90504 13.6551 3.95312 13.6562ZM8.26562 9.34375H8.625V9.70312C8.625 10.3703 8.35996 11.0102 7.88819 11.4819C7.41642 11.9537 6.77656 12.2188 6.10938 12.2188H5.75V11.8594C5.75 11.1922 6.01504 10.5523 6.48681 10.0806C6.95858 9.60879 7.59844 9.34375 8.26562 9.34375ZM1.4375 9.34375H1.79688C2.46406 9.34375 3.10392 9.60879 3.57569 10.0806C4.04746 10.5523 4.3125 11.1922 4.3125 11.8594V12.2188H3.95312C3.28594 12.2188 2.64608 11.9537 2.17431 11.4819C1.70254 11.0102 1.4375 10.3703 1.4375 9.70312V9.34375Z" fill="black"></path><path d="M30.4857 16.9373C30.4442 16.8098 30.3678 16.6964 30.2651 16.61C30.1625 16.5236 30.0378 16.4677 29.905 16.4486L25.5796 15.8197L23.6476 11.9003C23.5882 11.7801 23.4964 11.679 23.3825 11.6082C23.2686 11.5375 23.1372 11.5 23.0032 11.5C22.8691 11.5 22.7378 11.5375 22.6239 11.6082C22.51 11.679 22.4182 11.7801 22.3588 11.9003L20.424 15.8197L16.0978 16.4486C15.9651 16.4678 15.8405 16.5238 15.738 16.6102C15.6355 16.6966 15.5592 16.8099 15.5177 16.9374C15.4762 17.0649 15.4711 17.2014 15.5032 17.3316C15.5352 17.4617 15.603 17.5804 15.6989 17.674L18.8298 20.7258L18.0909 25.034C18.0682 25.1662 18.083 25.3021 18.1336 25.4263C18.1841 25.5505 18.2684 25.6581 18.3769 25.7369C18.4854 25.8157 18.6138 25.8626 18.7476 25.8723C18.8813 25.882 19.0151 25.854 19.1338 25.7916L23.0007 23.7575L26.8697 25.7916C26.9884 25.854 27.1222 25.882 27.256 25.8723C27.3897 25.8626 27.5181 25.8157 27.6266 25.7369C27.7351 25.6581 27.8194 25.5505 27.8699 25.4263C27.9205 25.3021 27.9353 25.1662 27.9126 25.034L27.1737 20.7215L30.3039 17.6704C30.3993 17.5772 30.4668 17.4592 30.4989 17.3297C30.531 17.2002 30.5265 17.0644 30.4857 16.9373ZM25.8994 19.9597C25.816 20.041 25.7537 20.1414 25.7178 20.2523C25.6818 20.3631 25.6734 20.4809 25.6931 20.5957L26.2501 23.8416L23.3349 22.3093C23.2318 22.2551 23.1171 22.2268 23.0007 22.2268C22.8842 22.2268 22.7695 22.2551 22.6665 22.3093L19.7512 23.8416L20.3082 20.5957C20.3279 20.4809 20.3193 20.363 20.2833 20.2522C20.2472 20.1413 20.1847 20.041 20.1012 19.9597L17.7437 17.6597L21.0018 17.186C21.1172 17.1693 21.2267 17.1247 21.321 17.0562C21.4153 16.9877 21.4915 16.8973 21.5431 16.7928L23.0007 13.8424L24.4576 16.7943C24.5092 16.8988 24.5854 16.9892 24.6797 17.0577C24.774 17.1262 24.8835 17.1707 24.9988 17.1874L28.2576 17.6611L25.8994 19.9597Z" fill="black"></path><path d="M23 4.3125C23.1906 4.3125 23.3734 4.23677 23.5082 4.10198C23.643 3.96719 23.7188 3.78437 23.7188 3.59375V0.71875C23.7188 0.528126 23.643 0.345309 23.5082 0.210517C23.3734 0.0757254 23.1906 0 23 0C22.8094 0 22.6266 0.0757254 22.4918 0.210517C22.357 0.345309 22.2812 0.528126 22.2812 0.71875V3.59375C22.2812 3.78437 22.357 3.96719 22.4918 4.10198C22.6266 4.23677 22.8094 4.3125 23 4.3125Z" fill="black"></path><path d="M28.7498 7.18921C28.9404 7.18917 29.1232 7.11341 29.2579 6.97861L30.993 5.24355C31.0617 5.17725 31.1164 5.09794 31.1541 5.01025C31.1917 4.92256 31.2116 4.82824 31.2124 4.73281C31.2132 4.63737 31.195 4.54273 31.1589 4.4544C31.1228 4.36606 31.0694 4.28581 31.0019 4.21833C30.9344 4.15084 30.8542 4.09747 30.7658 4.06134C30.6775 4.0252 30.5829 4.00701 30.4874 4.00784C30.392 4.00867 30.2977 4.0285 30.21 4.06617C30.1223 4.10383 30.043 4.15859 29.9767 4.22724L28.2416 5.9623C28.1411 6.06282 28.0727 6.19087 28.045 6.33028C28.0173 6.46968 28.0315 6.61417 28.0859 6.74549C28.1403 6.87681 28.2324 6.98905 28.3506 7.06803C28.4687 7.14701 28.6077 7.18918 28.7498 7.18921Z" fill="black"></path><path d="M16.7415 6.97861C16.8771 7.10954 17.0587 7.18199 17.2471 7.18035C17.4356 7.17871 17.6158 7.10312 17.7491 6.96986C17.8824 6.8366 17.9579 6.65632 17.9596 6.46787C17.9612 6.27942 17.8888 6.09786 17.7578 5.9623L16.0228 4.22724C15.9565 4.15859 15.8772 4.10383 15.7895 4.06617C15.7018 4.0285 15.6075 4.00867 15.512 4.00784C15.4166 4.00701 15.322 4.0252 15.2336 4.06134C15.1453 4.09747 15.0651 4.15084 14.9976 4.21833C14.9301 4.28581 14.8767 4.36606 14.8406 4.4544C14.8044 4.54273 14.7862 4.63737 14.7871 4.73281C14.7879 4.82824 14.8077 4.92256 14.8454 5.01025C14.8831 5.09794 14.9378 5.17725 15.0065 5.24355L16.7415 6.97861Z" fill="black"></path><path d="M29.9064 26.9796C29.8509 26.903 29.7808 26.838 29.7001 26.7885C29.6194 26.739 29.5298 26.7059 29.4363 26.6912C29.3428 26.6764 29.2473 26.6803 29.1553 26.7025C29.0633 26.7247 28.9766 26.7649 28.9001 26.8208C26.8371 28.3108 24.2849 28.9613 21.7603 28.6405C19.2358 28.3198 16.9273 27.0518 15.3024 25.0932C13.6775 23.1347 12.8574 20.6319 13.0082 18.0915C13.159 15.551 14.2694 13.1628 16.1146 11.4103C17.9599 9.65771 20.4021 8.67172 22.9469 8.6519C25.4917 8.63208 27.9489 9.57991 29.8213 11.3035C31.6936 13.0271 32.841 15.3978 33.0314 17.9355C33.2217 20.4733 32.4407 22.9885 30.8465 24.9722C30.7272 25.1212 30.672 25.3116 30.693 25.5014C30.714 25.6912 30.8096 25.8648 30.9586 25.9842C31.1077 26.1035 31.2981 26.1587 31.4879 26.1377C31.6776 26.1167 31.8513 26.0211 31.9706 25.872C33.615 23.8382 34.5082 21.2999 34.4999 18.6845C34.5057 16.0945 33.639 13.5781 32.0396 11.5409C30.4401 9.5038 28.2012 8.06476 25.6837 7.45586C23.1663 6.84697 20.5172 7.10371 18.1636 8.18469C15.8099 9.26568 13.889 11.1079 12.7105 13.4142C11.532 15.7206 11.1646 18.3567 11.6677 20.8974C12.1707 23.438 13.5149 25.7352 15.4833 27.4185C17.4518 29.1018 19.9298 30.073 22.5177 30.1755C25.1057 30.2781 27.6528 29.506 29.7483 27.9837C29.8246 27.9282 29.8892 27.8581 29.9384 27.7776C29.9877 27.6971 30.0206 27.6077 30.0353 27.5144C30.05 27.4212 30.0461 27.326 30.024 27.2342C30.0019 27.1424 29.9619 27.0559 29.9064 26.9796Z" fill="black"></path><path d="M20.535 37.8901C18.5739 37.5706 16.6839 36.9104 14.9503 35.9394L15.3054 35.3479C15.9907 34.2032 16.194 32.8334 15.8706 31.539C15.5472 30.2447 14.7236 29.1314 13.5804 28.4436L12.3478 27.704C12.2668 27.6554 12.1771 27.6233 12.0837 27.6094C11.9904 27.5955 11.8952 27.6001 11.8036 27.623C11.7121 27.6459 11.6259 27.6866 11.5501 27.7428C11.4742 27.799 11.4102 27.8696 11.3616 27.9505L10.6263 29.1832C10.18 29.9293 9.93458 30.7783 9.91405 31.6474C9.89352 32.5166 10.0986 33.3762 10.5092 34.1426C9.63963 34.1401 8.78429 34.3631 8.0266 34.7898C7.2689 35.2164 6.63472 35.8322 6.18591 36.577L5.44631 37.8082C5.34817 37.9716 5.31894 38.1672 5.36503 38.3521C5.41113 38.5371 5.52878 38.6961 5.69212 38.7943L6.92478 39.5332C8.06866 40.2189 9.43799 40.4224 10.7318 40.0989C12.0257 39.7754 13.1382 38.9515 13.8248 37.8082L14.2014 37.1814C16.0944 38.2437 18.1602 38.9632 20.3036 39.3068C20.3416 39.3131 20.3801 39.3162 20.4186 39.3161C20.599 39.3156 20.7727 39.2473 20.905 39.1247C21.0374 39.0021 21.1188 38.8342 21.1331 38.6543C21.1474 38.4745 21.0936 38.2958 20.9822 38.1538C20.8709 38.0119 20.7102 37.917 20.5322 37.888L20.535 37.8901ZM11.8597 29.9206L12.2299 29.3046L12.8466 29.6741C13.6629 30.1657 14.2508 30.9612 14.4814 31.8858C14.712 32.8104 14.5663 33.7888 14.0763 34.6061L13.7062 35.2207L13.0895 34.8498C12.2726 34.3591 11.684 33.5639 11.4532 32.6393C11.2225 31.7147 11.3684 30.7362 11.859 29.9192L11.8597 29.9206ZM12.5964 37.07C12.3534 37.4746 12.0331 37.8274 11.6538 38.1082C11.2745 38.389 10.8435 38.5924 10.3856 38.7066C9.9277 38.8209 9.45176 38.8439 8.98496 38.7742C8.51817 38.7045 8.06968 38.5435 7.66509 38.3005L7.04912 37.9311L7.41928 37.3144C7.91001 36.4974 8.70514 35.9089 9.62978 35.6781C10.5544 35.4474 11.5329 35.5933 12.3499 36.0839L12.9666 36.4541L12.5964 37.07Z" fill="black"></path><path d="M39.8147 36.5751C39.3656 35.8307 38.7313 35.2154 37.9736 34.7892C37.2159 34.3629 36.3607 34.1402 35.4914 34.1429C35.9025 33.3767 36.1078 32.517 36.0873 31.6477C36.0667 30.7785 35.8211 29.9294 35.3742 29.1835L34.6339 27.9508C34.5854 27.8698 34.5213 27.7991 34.4454 27.7429C34.3695 27.6866 34.2833 27.6459 34.1916 27.623C34.1 27.6001 34.0047 27.5955 33.9113 27.6094C33.8178 27.6234 33.728 27.6556 33.6471 27.7043L32.4159 28.4417C31.8492 28.7817 31.355 29.23 30.9616 29.7611C30.5682 30.2921 30.2833 30.8954 30.1231 31.5366C29.9629 32.1777 29.9306 32.8441 30.028 33.4978C30.1254 34.1514 30.3507 34.7795 30.6909 35.3461L31.0502 35.9397C29.3177 36.9111 27.4287 37.572 25.4684 37.8926C25.2903 37.9216 25.1297 38.0165 25.0183 38.1585C24.907 38.3005 24.8531 38.4791 24.8674 38.659C24.8817 38.8388 24.9632 39.0067 25.0955 39.1293C25.2279 39.2519 25.4016 39.3203 25.582 39.3207C25.6205 39.3208 25.659 39.3177 25.697 39.3114C27.8402 38.9677 29.9059 38.2484 31.7992 37.1868L32.1758 37.8128C32.5145 38.3803 32.9623 38.875 33.4935 39.2683C34.0246 39.6617 34.6284 39.9457 35.27 40.1042C35.6707 40.2031 36.082 40.2528 36.4948 40.2522C37.4045 40.2519 38.2968 40.0034 39.0758 39.5335L40.3085 38.7939C40.3894 38.7453 40.46 38.6813 40.5162 38.6055C40.5724 38.5296 40.6131 38.4435 40.636 38.3519C40.6589 38.2603 40.6635 38.1651 40.6496 38.0718C40.6357 37.9784 40.6035 37.8887 40.555 37.8078L39.8147 36.5751ZM31.5196 31.8853C31.6325 31.4269 31.8352 30.9954 32.116 30.6159C32.3968 30.2364 32.7501 29.9164 33.1555 29.6744L33.7714 29.305L34.1416 29.9209C34.6322 30.738 34.7781 31.7164 34.5474 32.6411C34.3166 33.5657 33.728 34.3608 32.9111 34.8516L32.2944 35.221L31.925 34.605C31.6807 34.2011 31.5191 33.7527 31.4495 33.2858C31.38 32.8189 31.4038 32.3429 31.5196 31.8853ZM38.3362 38.3008C37.5191 38.7914 36.5406 38.9372 35.6159 38.7063C34.6913 38.4754 33.8962 37.8867 33.4056 37.0696L33.0347 36.4544L33.6507 36.0842C34.0553 35.8412 34.5038 35.6802 34.9705 35.6106C35.4373 35.5409 35.9133 35.5638 36.3712 35.6781C36.8291 35.7924 37.2601 35.9957 37.6394 36.2765C38.0187 36.5573 38.339 36.9101 38.582 37.3147L38.9522 37.9314L38.3362 38.3008Z" fill="black"></path><path d="M45.6569 26.8116L44.7146 26.2366C44.2633 25.9585 43.7614 25.7724 43.2379 25.6892C42.7144 25.6059 42.1795 25.627 41.6642 25.7514C41.4283 25.81 41.1981 25.8896 40.9764 25.9893C40.9416 25.3373 40.7491 24.7034 40.4153 24.1421C40.0815 23.5809 39.6165 23.1091 39.0602 22.7672L38.1179 22.1922C38.0374 22.1427 37.948 22.1097 37.8547 22.0948C37.7614 22.08 37.6661 22.0837 37.5743 22.1058C37.4824 22.1278 37.3958 22.1677 37.3194 22.2232C37.243 22.2787 37.1782 22.3488 37.1289 22.4293L36.5539 23.3723C35.9982 24.2833 35.8254 25.3772 36.0735 26.4151C36.3216 27.453 36.9702 28.3505 37.8779 28.9118L39.7624 30.0682C40.3947 30.4581 41.1227 30.6648 41.8655 30.6655C42.1845 30.6651 42.5025 30.6275 42.8128 30.5534C43.3289 30.4313 43.8157 30.208 44.2449 29.8965C44.6741 29.5849 45.0373 29.1914 45.3133 28.7385L45.8883 27.797C45.9377 27.7165 45.9708 27.627 45.9856 27.5337C46.0005 27.4405 45.9968 27.3452 45.9747 27.2533C45.9527 27.1615 45.9128 27.0748 45.8573 26.9984C45.8017 26.922 45.7317 26.8573 45.6511 26.808L45.6569 26.8116ZM37.7765 24.1134L37.9785 23.7835L38.3084 23.9854C38.8948 24.3463 39.3143 24.9249 39.4749 25.5945C39.6354 26.2641 39.5241 26.97 39.1651 27.5576L38.9632 27.8868L38.6333 27.6848C38.0469 27.3241 37.6275 26.7456 37.4669 26.0762C37.3063 25.4067 37.4176 24.7009 37.7765 24.1134ZM44.09 27.9874C43.9117 28.2783 43.6777 28.5312 43.4016 28.7316C43.1255 28.932 42.8126 29.076 42.4808 29.1555C42.149 29.2349 41.8048 29.2482 41.4678 29.1945C41.1309 29.1408 40.8078 29.0213 40.5171 28.8428L40.1872 28.6408L40.3892 28.3109C40.7501 27.7242 41.3292 27.3049 41.9992 27.1451C42.6691 26.9852 43.3752 27.0979 43.9621 27.4584L44.292 27.6611L44.09 27.9874Z" fill="black"></path><path d="M45.2812 15.0938H44.2031C43.5681 15.0946 42.9426 15.2484 42.3796 15.5421C41.8166 15.8359 41.3327 16.261 40.9688 16.7814C40.6048 16.261 40.1209 15.8359 39.5579 15.5421C38.9949 15.2484 38.3694 15.0946 37.7344 15.0938H36.6562C36.4656 15.0938 36.2828 15.1695 36.148 15.3043C36.0132 15.4391 35.9375 15.6219 35.9375 15.8125V16.8906C35.9388 17.9387 36.3557 18.9434 37.0968 19.6844C37.8379 20.4255 38.8426 20.8424 39.8906 20.8438H42.0469C43.0949 20.8424 44.0996 20.4255 44.8407 19.6844C45.5818 18.9434 45.9987 17.9387 46 16.8906V15.8125C46 15.6219 45.9243 15.4391 45.7895 15.3043C45.6547 15.1695 45.4719 15.0938 45.2812 15.0938ZM37.375 16.8906V16.5312H37.7344C38.4016 16.5312 39.0414 16.7963 39.5132 17.2681C39.985 17.7398 40.25 18.3797 40.25 19.0469V19.4062H39.8906C39.2234 19.4062 38.5836 19.1412 38.1118 18.6694C37.64 18.1977 37.375 17.5578 37.375 16.8906ZM44.5625 16.8906C44.5625 17.5578 44.2975 18.1977 43.8257 18.6694C43.3539 19.1412 42.7141 19.4062 42.0469 19.4062H41.6875V19.0469C41.6875 18.3797 41.9525 17.7398 42.4243 17.2681C42.8961 16.7963 43.5359 16.5312 44.2031 16.5312H44.5625V16.8906Z" fill="black"></path><path d="M45.2812 7.90625H44.2031C43.5681 7.90708 42.9426 8.06089 42.3796 8.35465C41.8166 8.64841 41.3327 9.07347 40.9688 9.59387C40.6048 9.07347 40.1209 8.64841 39.5579 8.35465C38.9949 8.06089 38.3694 7.90708 37.7344 7.90625H36.6562C36.4656 7.90625 36.2828 7.98198 36.148 8.11677C36.0132 8.25156 35.9375 8.43438 35.9375 8.625V9.70312C35.9388 10.7512 36.3557 11.7559 37.0968 12.4969C37.8379 13.238 38.8426 13.6549 39.8906 13.6562H42.0469C43.0949 13.6549 44.0996 13.238 44.8407 12.4969C45.5818 11.7559 45.9987 10.7512 46 9.70312V8.625C46 8.43438 45.9243 8.25156 45.7895 8.11677C45.6547 7.98198 45.4719 7.90625 45.2812 7.90625ZM37.375 9.70312V9.34375H37.7344C38.4016 9.34375 39.0414 9.60879 39.5132 10.0806C39.985 10.5523 40.25 11.1922 40.25 11.8594V12.2188H39.8906C39.2234 12.2188 38.5836 11.9537 38.1118 11.4819C37.64 11.0102 37.375 10.3703 37.375 9.70312ZM44.5625 9.70312C44.5625 10.3703 44.2975 11.0102 43.8257 11.4819C43.3539 11.9537 42.7141 12.2188 42.0469 12.2188H41.6875V11.8594C41.6875 11.1922 41.9525 10.5523 42.4243 10.0806C42.8961 9.60879 43.5359 9.34375 44.2031 9.34375H44.5625V9.70312Z" fill="black"></path></svg> 