<?xml version="1.0" encoding="UTF-8"?> <svg xmlns="http://www.w3.org/2000/svg" width="31" height="27" viewBox="0 0 31 27" fill="none"><path d="M15.9209 0.374361C15.7866 0.144675 15.5435 0 15.275 0C15.0081 0 14.7635 0.141689 14.6292 0.374361L0.100674 25.5354C-0.033558 25.7651 -0.033558 26.0515 0.100674 26.2797C0.234906 26.5093 0.478017 26.654 0.746481 26.654H29.8036C30.0706 26.654 30.3152 26.5123 30.4494 26.2797C30.5836 26.05 30.5836 25.7636 30.4494 25.5354L15.9209 0.374361ZM2.0368 25.1658L15.2752 2.23725L28.5136 25.1658H2.0368Z" fill="black"></path><path d="M14.6299 7.07859L19.904 16.4005C20.0412 16.6407 20.2932 16.7749 20.5498 16.7749C20.675 16.7749 20.8063 16.7451 20.9196 16.675C21.2746 16.4692 21.3969 16.0142 21.1911 15.6548L15.9212 6.33437C15.7154 5.9794 15.2605 5.85263 14.901 6.06292C14.546 6.27024 14.424 6.72362 14.6299 7.07859Z" fill="black"></path><path d="M21.3155 18.6584L24.104 23.2733C24.2412 23.5134 24.4932 23.6476 24.7498 23.6476C24.875 23.6476 25.0063 23.6178 25.1196 23.5477C25.4746 23.3419 25.5969 22.887 25.3911 22.5275L22.6068 17.9142C22.401 17.5592 21.9461 17.4325 21.5866 17.6427C21.2317 17.8501 21.1096 18.3034 21.3155 18.6584Z" fill="black"></path></svg> 