<?xml version="1.0" encoding="UTF-8"?> <svg xmlns="http://www.w3.org/2000/svg" width="35" height="36" viewBox="0 0 35 36" fill="none"><path d="M17.0801 30.3102L17.4082 30.3654C17.4679 30.3757 17.5289 30.3757 17.5887 30.3654L17.9168 30.3102C21.6249 29.6972 24.9955 27.7707 27.4245 24.8758C29.8535 21.9809 31.182 18.3071 31.1719 14.5128V3.86567C31.1719 3.71921 31.1143 3.57874 31.0118 3.47518C30.9092 3.37162 30.7701 3.31343 30.6251 3.31343C29.9001 3.31256 29.2051 3.02136 28.6925 2.50373C28.1799 1.98609 27.8916 1.28428 27.8907 0.552239C27.8907 0.405776 27.8331 0.265312 27.7305 0.161747C27.6279 0.0581821 27.4888 0 27.3438 0L24.6094 0C24.4644 0 24.3253 0.0581821 24.2227 0.161747C24.1202 0.265312 24.0626 0.405776 24.0626 0.552239C24.0626 0.698702 24.1202 0.839166 24.2227 0.942731C24.3253 1.0463 24.4644 1.10448 24.6094 1.10448H26.8358C26.9551 1.93001 27.3351 2.69459 27.9193 3.28452C28.5035 3.87444 29.2607 4.25819 30.0782 4.3787V14.5128C30.0876 18.045 28.851 21.4652 26.59 24.1603C24.329 26.8554 21.1914 28.6494 17.7396 29.2206L17.5001 29.2609L17.2605 29.2206C13.8087 28.6494 10.6711 26.8554 8.41012 24.1603C6.14913 21.4652 4.91253 18.045 4.92193 14.5128V4.3787C5.73945 4.25819 6.4966 3.87444 7.0808 3.28452C7.66499 2.69459 8.04502 1.93001 8.16436 1.10448H22.4219C22.567 1.10448 22.7061 1.0463 22.8086 0.942731C22.9112 0.839166 22.9688 0.698702 22.9688 0.552239C22.9688 0.405776 22.9112 0.265312 22.8086 0.161747C22.7061 0.0581821 22.567 0 22.4219 0L7.65631 0C7.51127 0 7.37217 0.0581821 7.26961 0.161747C7.16705 0.265312 7.10943 0.405776 7.10943 0.552239C7.10857 1.28428 6.8202 1.98609 6.30759 2.50373C5.79499 3.02136 5.09999 3.31256 4.37506 3.31343C4.23002 3.31343 4.09092 3.37162 3.98836 3.47518C3.8858 3.57874 3.82818 3.71921 3.82818 3.86567V14.5128C3.81796 18.3066 5.14602 21.9801 7.57437 24.8749C10.0027 27.7696 13.3726 29.6965 17.0801 30.3102Z" fill="black"></path><path d="M8.44713 21.4001C8.38728 21.4402 8.33586 21.4919 8.2958 21.5522C8.25574 21.6124 8.22782 21.68 8.21365 21.7511C8.19948 21.8223 8.19933 21.8955 8.21321 21.9667C8.22709 22.0379 8.25473 22.1056 8.29455 22.166C9.33236 23.7332 10.676 25.0699 12.2431 26.0945C13.8103 27.1191 15.568 27.8099 17.4088 28.1247C17.4693 28.1343 17.5309 28.1343 17.5914 28.1247C20.7805 27.5881 23.6769 25.9245 25.7638 23.431C27.8507 20.9375 28.9921 17.7762 28.9845 14.5115V5.61214C28.9844 5.50473 28.9533 5.39967 28.8951 5.30983C28.8368 5.21998 28.7538 5.14925 28.6563 5.10628C27.5185 4.60451 26.6103 3.68736 26.1134 2.53837C26.0708 2.43994 26.0008 2.35616 25.9118 2.29731C25.8228 2.23846 25.7188 2.20709 25.6124 2.20703H9.3872C9.28084 2.20709 9.1768 2.23846 9.08783 2.29731C8.99886 2.35616 8.92881 2.43994 8.88627 2.53837C8.38936 3.68736 7.48113 4.60451 6.3433 5.10628C6.24582 5.14925 6.16286 5.21998 6.10458 5.30983C6.0463 5.39967 6.01523 5.50473 6.01517 5.61214V14.5115C6.01087 16.4186 6.39877 18.3059 7.15431 20.0537C7.18279 20.1206 7.22407 20.1811 7.27577 20.2318C7.32748 20.2824 7.38859 20.3223 7.4556 20.3491C7.52261 20.3758 7.5942 20.3889 7.66625 20.3877C7.7383 20.3864 7.80939 20.3707 7.87543 20.3416C7.94147 20.3125 8.00117 20.2705 8.05108 20.2181C8.101 20.1656 8.14016 20.1036 8.1663 20.0358C8.19244 19.968 8.20505 19.8957 8.20341 19.8229C8.20177 19.7502 8.18591 19.6785 8.15673 19.6119C7.46204 18.0032 7.10544 16.2665 7.10947 14.5115V5.96281C8.2395 5.38102 9.15833 4.45318 9.73447 3.31206H25.2657C25.8419 4.45318 26.7607 5.38102 27.8907 5.96281V14.5115C27.8978 17.499 26.8589 20.3929 24.9575 22.6818C23.0561 24.9706 20.4147 26.5071 17.5001 27.0197C15.8239 26.7203 14.225 26.0816 12.7996 25.142C11.3742 24.2025 10.1517 22.9815 9.20564 21.5525C9.12507 21.4307 8.99989 21.3463 8.85764 21.3177C8.71539 21.2891 8.56773 21.3187 8.44713 21.4001Z" fill="black"></path><path d="M33.4242 31.477L34.9456 28.4104C34.9873 28.326 35.007 28.2321 35.0027 28.1379C34.9983 28.0436 34.9701 27.952 34.9207 27.8719C34.8714 27.7917 34.8025 27.7257 34.7207 27.6801C34.6389 27.6345 34.5468 27.6108 34.4534 27.6113H31.1721V25.9546C31.1721 25.8081 31.1145 25.6677 31.012 25.5641C30.9094 25.4605 30.7703 25.4023 30.6253 25.4023H28.6713C28.5262 25.4023 28.3871 25.4605 28.2846 25.5641C28.182 25.6677 28.1244 25.8081 28.1244 25.9546C28.1244 26.101 28.182 26.2415 28.2846 26.3451C28.3871 26.4486 28.5262 26.5068 28.6713 26.5068H30.0784V32.0292H4.92213V26.5068H6.32924C6.47428 26.5068 6.61338 26.4486 6.71594 26.3451C6.8185 26.2415 6.87611 26.101 6.87611 25.9546C6.87611 25.8081 6.8185 25.6677 6.71594 25.5641C6.61338 25.4605 6.47428 25.4023 6.32924 25.4023H4.37526C4.23021 25.4023 4.09111 25.4605 3.98856 25.5641C3.886 25.6677 3.82838 25.8081 3.82838 25.9546V27.6113H0.54713C0.453901 27.6113 0.362209 27.6353 0.280762 27.6811C0.199315 27.7269 0.130818 27.793 0.0817768 27.873C0.0327354 27.9531 0.00477809 28.0445 0.000560087 28.1386C-0.00365792 28.2326 0.0160035 28.3262 0.0576769 28.4104L1.57635 31.477L0.0576769 34.5436C0.0160035 34.6278 -0.00365792 34.7213 0.000560087 34.8154C0.00477809 34.9094 0.0327354 35.0008 0.0817768 35.0809C0.130818 35.161 0.199315 35.227 0.280762 35.2729C0.362209 35.3187 0.453901 35.3427 0.54713 35.3426H6.56276C6.7078 35.3426 6.8469 35.2845 6.94945 35.1809C7.05201 35.0773 7.10963 34.9369 7.10963 34.7904C7.10963 34.6439 7.05201 34.5035 6.94945 34.3999C6.8469 34.2963 6.7078 34.2382 6.56276 34.2382H1.43197L2.67721 31.7238C2.71514 31.6472 2.73488 31.5627 2.73488 31.477C2.73488 31.3913 2.71514 31.3068 2.67721 31.2301L1.43197 28.7158H3.82838V32.5814C3.82838 32.7279 3.886 32.8684 3.98856 32.9719C4.09111 33.0755 4.23021 33.1337 4.37526 33.1337H30.6253C30.7703 33.1337 30.9094 33.0755 31.012 32.9719C31.1145 32.8684 31.1721 32.7279 31.1721 32.5814V28.7158H33.5685L32.3233 31.2301C32.2854 31.3068 32.2656 31.3913 32.2656 31.477C32.2656 31.5627 32.2854 31.6472 32.3233 31.7238L33.5685 34.2382H28.4378C28.2927 34.2382 28.1536 34.2963 28.0511 34.3999C27.9485 34.5035 27.8909 34.6439 27.8909 34.7904C27.8909 34.9369 27.9485 35.0773 28.0511 35.1809C28.1536 35.2845 28.2927 35.3426 28.4378 35.3426H34.4534C34.5468 35.3432 34.6389 35.3195 34.7207 35.2739C34.8025 35.2282 34.8714 35.1622 34.9207 35.0821C34.9701 35.0019 34.9983 34.9104 35.0027 34.8161C35.007 34.7218 34.9873 34.628 34.9456 34.5436L33.4242 31.477Z" fill="black"></path><path d="M24.489 12.8603C24.4575 12.7623 24.3995 12.6752 24.3215 12.6087C24.2435 12.5422 24.1486 12.4991 24.0476 12.4843L19.8619 11.8702L17.9921 8.04096C17.9418 7.95473 17.8701 7.88325 17.7841 7.83359C17.698 7.78393 17.6006 7.75781 17.5015 7.75781C17.4024 7.75781 17.3051 7.78393 17.219 7.83359C17.133 7.88325 17.0613 7.95473 17.011 8.04096L15.1396 11.8702L10.9522 12.4821C10.8512 12.4969 10.7563 12.5399 10.6782 12.6064C10.6002 12.6728 10.5421 12.76 10.5106 12.858C10.4791 12.956 10.4754 13.061 10.4999 13.1611C10.5244 13.2611 10.5761 13.3523 10.6492 13.4242L13.6778 16.4063L12.9608 20.6171C12.9436 20.7187 12.9549 20.8231 12.9933 20.9185C13.0318 21.0139 13.0959 21.0966 13.1785 21.1572C13.261 21.2177 13.3587 21.2537 13.4605 21.2612C13.5622 21.2686 13.664 21.2471 13.7544 21.1992L17.4999 19.2116L21.2433 21.1997C21.3337 21.2483 21.4358 21.2703 21.538 21.2632C21.6402 21.256 21.7384 21.2201 21.8213 21.1593C21.9042 21.0986 21.9686 21.0156 22.0071 20.9197C22.0456 20.8238 22.0566 20.719 22.039 20.6171L21.3242 16.4074L24.3528 13.4253C24.4253 13.3532 24.4764 13.2622 24.5005 13.1624C24.5245 13.0626 24.5205 12.958 24.489 12.8603ZM20.3524 15.8198C20.2891 15.8823 20.2417 15.9593 20.2144 16.0444C20.187 16.1294 20.1805 16.2199 20.1955 16.308L20.7713 19.7009L17.7542 18.0994C17.6758 18.0578 17.5885 18.0361 17.4999 18.0361C17.4113 18.0361 17.324 18.0578 17.2456 18.0994L14.2285 19.7009L14.8044 16.308C14.8193 16.2199 14.8128 16.1294 14.7855 16.0444C14.7581 15.9593 14.7107 15.8823 14.6474 15.8198L12.2062 13.4165L15.5793 12.9194C15.6671 12.9067 15.7506 12.8725 15.8224 12.8198C15.8942 12.7672 15.9523 12.6977 15.9916 12.6174L17.4999 9.53311L19.0082 12.6196C19.0475 12.6999 19.1056 12.7694 19.1774 12.8221C19.2492 12.8747 19.3327 12.9089 19.4205 12.9216L22.7937 13.4187L20.3524 15.8198Z" fill="black"></path></svg> 