<?xml version="1.0" encoding="UTF-8"?> <svg xmlns="http://www.w3.org/2000/svg" width="58" height="58" viewBox="0 0 58 58" fill="none"><g clip-path="url(#clip0_1_350)"><path d="M14.1219 37.7851C15.0326 37.224 15.6838 36.3247 15.9325 35.2843C16.1812 34.2438 16.0072 33.1472 15.4487 32.2349L14.8737 31.2926C14.8243 31.2121 14.7596 31.142 14.6832 31.0865C14.6068 31.031 14.5202 30.9911 14.4283 30.969C14.3365 30.947 14.2412 30.9433 14.1479 30.9581C14.0546 30.973 13.9652 31.006 13.8847 31.0554L12.9424 31.6304C12.3852 31.9723 11.9195 32.4445 11.5854 33.0063C11.2512 33.5681 11.0585 34.2027 11.024 34.8555C10.8021 34.7558 10.5716 34.6762 10.3355 34.6176C9.82013 34.4936 9.28537 34.4726 8.7619 34.5559C8.23843 34.6392 7.73656 34.825 7.2851 35.1027L6.34282 35.6777C6.26233 35.7271 6.19236 35.7919 6.1369 35.8683C6.08145 35.9447 6.0416 36.0314 6.01964 36.1232C5.99768 36.2151 5.99404 36.3103 6.00892 36.4036C6.02379 36.4969 6.0569 36.5863 6.10635 36.6667L6.68135 37.6076C6.95721 38.0614 7.32051 38.456 7.75014 38.7683C8.17978 39.0806 8.66718 39.3044 9.18404 39.4267C9.49461 39.5009 9.81278 39.5385 10.1321 39.5388C10.8747 39.5384 11.6025 39.3316 12.2344 38.9416L14.1219 37.7851ZM13.6906 32.8588L14.0205 32.6561L14.2225 32.986C14.5822 33.5735 14.6941 34.2797 14.5338 34.9497C14.3734 35.6196 13.9539 36.1986 13.3672 36.5596L13.0373 36.7623L12.8353 36.4331C12.4756 35.8455 12.3636 35.1392 12.5239 34.4691C12.6843 33.799 13.1038 33.2199 13.6906 32.8588ZM11.4826 37.7161C11.1919 37.8947 10.8688 38.0143 10.5318 38.0679C10.1948 38.1216 9.85053 38.1083 9.51869 38.0288C9.18685 37.9493 8.87394 37.8051 8.59785 37.6046C8.32177 37.4041 8.08792 37.1511 7.9097 36.8601L7.70701 36.5309L8.03692 36.3282C8.32781 36.1498 8.651 36.0304 8.98804 35.9769C9.32507 35.9234 9.66934 35.9368 10.0012 36.0163C10.333 36.0959 10.646 36.24 10.9221 36.4406C11.1982 36.6411 11.4322 36.894 11.6105 37.1849L11.8125 37.5141L11.4826 37.7161Z" fill="black"></path><path d="M9.95312 29.7188H12.1094C13.1575 29.7176 14.1623 29.3008 14.9034 28.5596C15.6445 27.8185 16.0614 26.8137 16.0625 25.7656V24.6875C16.0625 24.4969 15.9868 24.3141 15.852 24.1793C15.7172 24.0445 15.5344 23.9688 15.3438 23.9688H14.2656C13.6306 23.9696 13.0051 24.1234 12.4421 24.4171C11.8791 24.7109 11.3952 25.136 11.0312 25.6564C10.6673 25.136 10.1834 24.7109 9.62038 24.4171C9.05738 24.1234 8.4319 23.9696 7.79688 23.9688H6.71875C6.52813 23.9688 6.34531 24.0445 6.21052 24.1793C6.07573 24.3141 6 24.4969 6 24.6875V25.7656C6.00114 26.8137 6.418 27.8185 7.1591 28.5596C7.90021 29.3008 8.90504 29.7176 9.95312 29.7188ZM14.2656 25.4062H14.625V25.7656C14.625 26.4328 14.36 27.0727 13.8882 27.5444C13.4164 28.0162 12.7766 28.2812 12.1094 28.2812H11.75V27.9219C11.75 27.2547 12.015 26.6148 12.4868 26.1431C12.9586 25.6713 13.5984 25.4062 14.2656 25.4062ZM7.4375 25.4062H7.79688C8.46406 25.4062 9.10392 25.6713 9.57569 26.1431C10.0475 26.6148 10.3125 27.2547 10.3125 27.9219V28.2812H9.95312C9.28594 28.2812 8.64608 28.0162 8.17431 27.5444C7.70254 27.0727 7.4375 26.4328 7.4375 25.7656V25.4062Z" fill="black"></path><path d="M9.95312 22.5312H12.1094C13.1575 22.5301 14.1623 22.1133 14.9034 21.3721C15.6445 20.631 16.0614 19.6262 16.0625 18.5781V17.5C16.0625 17.3094 15.9868 17.1266 15.852 16.9918C15.7172 16.857 15.5344 16.7812 15.3438 16.7812H14.2656C13.6306 16.7821 13.0051 16.9359 12.4421 17.2296C11.8791 17.5234 11.3952 17.9485 11.0312 18.4689C10.6673 17.9485 10.1834 17.5234 9.62038 17.2296C9.05738 16.9359 8.4319 16.7821 7.79688 16.7812H6.71875C6.52813 16.7812 6.34531 16.857 6.21052 16.9918C6.07573 17.1266 6 17.3094 6 17.5V18.5781C6.00114 19.6262 6.418 20.631 7.1591 21.3721C7.90021 22.1133 8.90504 22.5301 9.95312 22.5312ZM14.2656 18.2188H14.625V18.5781C14.625 19.2453 14.36 19.8852 13.8882 20.3569C13.4164 20.8287 12.7766 21.0938 12.1094 21.0938H11.75V20.7344C11.75 20.0672 12.015 19.4273 12.4868 18.9556C12.9586 18.4838 13.5984 18.2188 14.2656 18.2188ZM7.4375 18.2188H7.79688C8.46406 18.2188 9.10392 18.4838 9.57569 18.9556C10.0475 19.4273 10.3125 20.0672 10.3125 20.7344V21.0938H9.95312C9.28594 21.0938 8.64608 20.8287 8.17431 20.3569C7.70254 19.8852 7.4375 19.2453 7.4375 18.5781V18.2188Z" fill="black"></path><path d="M36.4857 25.8123C36.4442 25.6848 36.3678 25.5714 36.2651 25.485C36.1625 25.3986 36.0378 25.3427 35.905 25.3236L31.5796 24.6947L29.6476 20.7753C29.5882 20.6551 29.4964 20.554 29.3825 20.4832C29.2686 20.4125 29.1372 20.375 29.0032 20.375C28.8691 20.375 28.7378 20.4125 28.6239 20.4832C28.51 20.554 28.4182 20.6551 28.3588 20.7753L26.424 24.6947L22.0978 25.3236C21.9651 25.3428 21.8405 25.3988 21.738 25.4852C21.6355 25.5716 21.5592 25.6849 21.5177 25.8124C21.4762 25.9399 21.4711 26.0764 21.5032 26.2066C21.5352 26.3367 21.603 26.4554 21.6989 26.549L24.8298 29.6008L24.0909 33.909C24.0682 34.0412 24.083 34.1771 24.1336 34.3013C24.1841 34.4255 24.2684 34.5331 24.3769 34.6119C24.4854 34.6907 24.6138 34.7376 24.7476 34.7473C24.8813 34.757 25.0151 34.729 25.1338 34.6666L29.0007 32.6325L32.8697 34.6666C32.9884 34.729 33.1222 34.757 33.256 34.7473C33.3897 34.7376 33.5181 34.6907 33.6266 34.6119C33.7351 34.5331 33.8194 34.4255 33.8699 34.3013C33.9205 34.1771 33.9353 34.0412 33.9126 33.909L33.1737 29.5965L36.3039 26.5454C36.3993 26.4522 36.4668 26.3342 36.4989 26.2047C36.531 26.0752 36.5265 25.9394 36.4857 25.8123ZM31.8994 28.8347C31.816 28.916 31.7537 29.0164 31.7178 29.1273C31.6818 29.2381 31.6734 29.3559 31.6931 29.4707L32.2501 32.7166L29.3349 31.1843C29.2318 31.1301 29.1171 31.1018 29.0007 31.1018C28.8842 31.1018 28.7695 31.1301 28.6665 31.1843L25.7512 32.7166L26.3082 29.4707C26.3279 29.3559 26.3193 29.238 26.2833 29.1272C26.2472 29.0163 26.1847 28.916 26.1012 28.8347L23.7437 26.5347L27.0018 26.061C27.1172 26.0443 27.2267 25.9997 27.321 25.9312C27.4153 25.8627 27.4915 25.7723 27.5431 25.6678L29.0007 22.7174L30.4576 25.6693C30.5092 25.7738 30.5854 25.8642 30.6797 25.9327C30.774 26.0012 30.8835 26.0457 30.9988 26.0624L34.2576 26.5361L31.8994 28.8347Z" fill="black"></path><path d="M29 13.1875C29.1906 13.1875 29.3734 13.1118 29.5082 12.977C29.643 12.8422 29.7188 12.6594 29.7188 12.4688V9.59375C29.7188 9.40313 29.643 9.22031 29.5082 9.08552C29.3734 8.95073 29.1906 8.875 29 8.875C28.8094 8.875 28.6266 8.95073 28.4918 9.08552C28.357 9.22031 28.2812 9.40313 28.2812 9.59375V12.4688C28.2812 12.6594 28.357 12.8422 28.4918 12.977C28.6266 13.1118 28.8094 13.1875 29 13.1875Z" fill="black"></path><path d="M34.7498 16.0642C34.9404 16.0642 35.1232 15.9884 35.2579 15.8536L36.993 14.1186C37.0617 14.0522 37.1164 13.9729 37.1541 13.8852C37.1917 13.7976 37.2116 13.7032 37.2124 13.6078C37.2132 13.5124 37.195 13.4177 37.1589 13.3294C37.1228 13.2411 37.0694 13.1608 37.0019 13.0933C36.9344 13.0258 36.8542 12.9725 36.7658 12.9363C36.6775 12.9002 36.5829 12.882 36.4874 12.8828C36.392 12.8837 36.2977 12.9035 36.21 12.9412C36.1223 12.9788 36.043 13.0336 35.9767 13.1022L34.2416 14.8373C34.1411 14.9378 34.0727 15.0659 34.045 15.2053C34.0173 15.3447 34.0315 15.4892 34.0859 15.6205C34.1403 15.7518 34.2324 15.864 34.3506 15.943C34.4687 16.022 34.6077 16.0642 34.7498 16.0642Z" fill="black"></path><path d="M22.7415 15.8536C22.8771 15.9845 23.0587 16.057 23.2471 16.0553C23.4356 16.0537 23.6158 15.9781 23.7491 15.8449C23.8824 15.7116 23.9579 15.5313 23.9596 15.3429C23.9612 15.1544 23.8888 14.9729 23.7578 14.8373L22.0228 13.1022C21.9565 13.0336 21.8772 12.9788 21.7895 12.9412C21.7018 12.9035 21.6075 12.8837 21.512 12.8828C21.4166 12.882 21.322 12.9002 21.2336 12.9363C21.1453 12.9725 21.0651 13.0258 20.9976 13.0933C20.9301 13.1608 20.8767 13.2411 20.8406 13.3294C20.8044 13.4177 20.7862 13.5124 20.7871 13.6078C20.7879 13.7032 20.8077 13.7976 20.8454 13.8852C20.8831 13.9729 20.9378 14.0522 21.0065 14.1186L22.7415 15.8536Z" fill="black"></path><path d="M35.9064 35.8546C35.8509 35.778 35.7808 35.713 35.7001 35.6635C35.6194 35.614 35.5298 35.5809 35.4363 35.5662C35.3428 35.5514 35.2473 35.5553 35.1553 35.5775C35.0633 35.5997 34.9766 35.6399 34.9001 35.6958C32.8371 37.1858 30.2849 37.8363 27.7603 37.5155C25.2358 37.1948 22.9273 35.9268 21.3024 33.9682C19.6775 32.0097 18.8574 29.5069 19.0082 26.9665C19.159 24.426 20.2694 22.0378 22.1146 20.2853C23.9599 18.5327 26.4021 17.5467 28.9469 17.5269C31.4917 17.5071 33.9489 18.4549 35.8213 20.1785C37.6936 21.9021 38.841 24.2728 39.0314 26.8105C39.2217 29.3483 38.4407 31.8635 36.8465 33.8472C36.7272 33.9962 36.672 34.1866 36.693 34.3764C36.714 34.5662 36.8096 34.7398 36.9586 34.8592C37.1077 34.9785 37.2981 35.0337 37.4879 35.0127C37.6776 34.9917 37.8513 34.8961 37.9706 34.747C39.615 32.7132 40.5082 30.1749 40.4999 27.5595C40.5057 24.9695 39.639 22.4531 38.0396 20.4159C36.4401 18.3788 34.2012 16.9398 31.6837 16.3309C29.1663 15.722 26.5172 15.9787 24.1636 17.0597C21.8099 18.1407 19.889 19.9829 18.7105 22.2892C17.532 24.5956 17.1646 27.2317 17.6677 29.7724C18.1707 32.313 19.5149 34.6102 21.4833 36.2935C23.4518 37.9768 25.9298 38.948 28.5177 39.0505C31.1057 39.1531 33.6528 38.381 35.7483 36.8587C35.8246 36.8032 35.8892 36.7331 35.9384 36.6526C35.9877 36.5721 36.0206 36.4827 36.0353 36.3894C36.05 36.2962 36.0461 36.201 36.024 36.1092C36.0019 36.0174 35.9619 35.9309 35.9064 35.8546Z" fill="black"></path><path d="M26.535 46.7651C24.5739 46.4456 22.6839 45.7854 20.9503 44.8144L21.3054 44.2229C21.9907 43.0782 22.194 41.7084 21.8706 40.414C21.5472 39.1197 20.7236 38.0064 19.5804 37.3186L18.3478 36.579C18.2668 36.5304 18.1771 36.4983 18.0837 36.4844C17.9904 36.4705 17.8952 36.4751 17.8036 36.498C17.7121 36.5209 17.6259 36.5616 17.5501 36.6178C17.4742 36.674 17.4102 36.7446 17.3616 36.8255L16.6263 38.0582C16.18 38.8043 15.9346 39.6533 15.914 40.5224C15.8935 41.3916 16.0986 42.2512 16.5092 43.0176C15.6396 43.0151 14.7843 43.2381 14.0266 43.6648C13.2689 44.0914 12.6347 44.7072 12.1859 45.452L11.4463 46.6832C11.3482 46.8466 11.3189 47.0422 11.365 47.2271C11.4111 47.4121 11.5288 47.5711 11.6921 47.6693L12.9248 48.4082C14.0687 49.0939 15.438 49.2974 16.7318 48.9739C18.0257 48.6504 19.1382 47.8265 19.8248 46.6832L20.2014 46.0564C22.0944 47.1187 24.1602 47.8382 26.3036 48.1818C26.3416 48.1881 26.3801 48.1912 26.4186 48.1911C26.599 48.1906 26.7727 48.1223 26.905 47.9997C27.0374 47.8771 27.1188 47.7092 27.1331 47.5293C27.1474 47.3495 27.0936 47.1708 26.9822 47.0288C26.8709 46.8869 26.7102 46.792 26.5322 46.763L26.535 46.7651ZM17.8597 38.7956L18.2299 38.1796L18.8466 38.5491C19.6629 39.0407 20.2508 39.8362 20.4814 40.7608C20.712 41.6854 20.5663 42.6638 20.0763 43.4811L19.7062 44.0957L19.0895 43.7248C18.2726 43.2341 17.684 42.4389 17.4532 41.5143C17.2225 40.5897 17.3684 39.6112 17.859 38.7942L17.8597 38.7956ZM18.5964 45.945C18.3534 46.3496 18.0331 46.7024 17.6538 46.9832C17.2745 47.264 16.8435 47.4674 16.3856 47.5816C15.9277 47.6959 15.4518 47.7189 14.985 47.6492C14.5182 47.5795 14.0697 47.4185 13.6651 47.1755L13.0491 46.8061L13.4193 46.1894C13.91 45.3724 14.7051 44.7839 15.6298 44.5531C16.5544 44.3224 17.5329 44.4683 18.3499 44.9589L18.9666 45.3291L18.5964 45.945Z" fill="black"></path><path d="M45.8147 45.4501C45.3656 44.7057 44.7313 44.0904 43.9736 43.6642C43.2159 43.2379 42.3607 43.0152 41.4914 43.0179C41.9025 42.2517 42.1078 41.392 42.0873 40.5227C42.0667 39.6535 41.8211 38.8044 41.3742 38.0585L40.6339 36.8258C40.5854 36.7448 40.5213 36.6741 40.4454 36.6179C40.3695 36.5616 40.2833 36.5209 40.1916 36.498C40.1 36.4751 40.0047 36.4705 39.9113 36.4844C39.8178 36.4984 39.728 36.5306 39.6471 36.5793L38.4159 37.3167C37.8492 37.6567 37.355 38.105 36.9616 38.6361C36.5682 39.1671 36.2833 39.7704 36.1231 40.4116C35.9629 41.0527 35.9306 41.7191 36.028 42.3728C36.1254 43.0264 36.3507 43.6545 36.6909 44.2211L37.0502 44.8147C35.3177 45.7861 33.4287 46.447 31.4684 46.7676C31.2903 46.7966 31.1297 46.8915 31.0183 47.0335C30.907 47.1755 30.8531 47.3541 30.8674 47.534C30.8817 47.7138 30.9632 47.8817 31.0955 48.0043C31.2279 48.1269 31.4016 48.1953 31.582 48.1957C31.6205 48.1958 31.659 48.1927 31.697 48.1864C33.8402 47.8427 35.9059 47.1234 37.7992 46.0618L38.1758 46.6878C38.5145 47.2553 38.9623 47.75 39.4935 48.1433C40.0246 48.5367 40.6284 48.8207 41.27 48.9792C41.6707 49.0781 42.082 49.1278 42.4948 49.1272C43.4045 49.1269 44.2968 48.8784 45.0758 48.4085L46.3085 47.6689C46.3894 47.6203 46.46 47.5563 46.5162 47.4805C46.5724 47.4046 46.6131 47.3185 46.636 47.2269C46.6589 47.1353 46.6635 47.0401 46.6496 46.9468C46.6357 46.8534 46.6035 46.7637 46.555 46.6828L45.8147 45.4501ZM37.5196 40.7603C37.6325 40.3019 37.8352 39.8704 38.116 39.4909C38.3968 39.1114 38.7501 38.7914 39.1555 38.5494L39.7714 38.18L40.1416 38.7959C40.6322 39.613 40.7781 40.5914 40.5474 41.5161C40.3166 42.4407 39.728 43.2358 38.9111 43.7266L38.2944 44.096L37.925 43.48C37.6807 43.0761 37.5191 42.6277 37.4495 42.1608C37.38 41.6939 37.4038 41.2179 37.5196 40.7603ZM44.3362 47.1758C43.5191 47.6664 42.5406 47.8122 41.6159 47.5813C40.6913 47.3504 39.8962 46.7617 39.4056 45.9446L39.0347 45.3294L39.6507 44.9592C40.0553 44.7162 40.5038 44.5552 40.9705 44.4856C41.4373 44.4159 41.9133 44.4388 42.3712 44.5531C42.8291 44.6674 43.2601 44.8707 43.6394 45.1515C44.0187 45.4323 44.339 45.7851 44.582 46.1897L44.9522 46.8064L44.3362 47.1758Z" fill="black"></path><path d="M51.6569 35.6866L50.7146 35.1116C50.2633 34.8335 49.7614 34.6474 49.2379 34.5642C48.7144 34.4809 48.1795 34.502 47.6642 34.6264C47.4283 34.685 47.1981 34.7646 46.9764 34.8643C46.9416 34.2123 46.7491 33.5784 46.4153 33.0171C46.0815 32.4559 45.6165 31.9841 45.0602 31.6422L44.1179 31.0672C44.0374 31.0177 43.948 30.9847 43.8547 30.9698C43.7614 30.955 43.6661 30.9587 43.5743 30.9808C43.4824 31.0028 43.3958 31.0427 43.3194 31.0982C43.243 31.1537 43.1782 31.2238 43.1289 31.3043L42.5539 32.2473C41.9982 33.1583 41.8254 34.2522 42.0735 35.2901C42.3216 36.328 42.9702 37.2255 43.8779 37.7868L45.7624 38.9432C46.3947 39.3331 47.1227 39.5398 47.8655 39.5405C48.1845 39.5401 48.5025 39.5025 48.8128 39.4284C49.3289 39.3063 49.8157 39.083 50.2449 38.7715C50.6741 38.4599 51.0373 38.0664 51.3133 37.6135L51.8883 36.672C51.9377 36.5915 51.9708 36.502 51.9856 36.4087C52.0005 36.3155 51.9968 36.2202 51.9747 36.1283C51.9527 36.0365 51.9128 35.9498 51.8573 35.8734C51.8017 35.797 51.7317 35.7323 51.6511 35.683L51.6569 35.6866ZM43.7765 32.9884L43.9785 32.6585L44.3084 32.8604C44.8948 33.2213 45.3143 33.7999 45.4749 34.4695C45.6354 35.1391 45.5241 35.845 45.1651 36.4326L44.9632 36.7618L44.6333 36.5598C44.0469 36.1991 43.6275 35.6206 43.4669 34.9512C43.3063 34.2817 43.4176 33.5759 43.7765 32.9884ZM50.09 36.8624C49.9117 37.1533 49.6777 37.4062 49.4016 37.6066C49.1255 37.807 48.8126 37.951 48.4808 38.0305C48.149 38.1099 47.8048 38.1232 47.4678 38.0695C47.1309 38.0158 46.8078 37.8963 46.5171 37.7178L46.1872 37.5158L46.3892 37.1859C46.7501 36.5992 47.3292 36.1799 47.9992 36.0201C48.6691 35.8602 49.3752 35.9729 49.9621 36.3334L50.292 36.5361L50.09 36.8624Z" fill="black"></path><path d="M51.2812 23.9688H50.2031C49.5681 23.9696 48.9426 24.1234 48.3796 24.4171C47.8166 24.7109 47.3327 25.136 46.9688 25.6564C46.6048 25.136 46.1209 24.7109 45.5579 24.4171C44.9949 24.1234 44.3694 23.9696 43.7344 23.9688H42.6562C42.4656 23.9688 42.2828 24.0445 42.148 24.1793C42.0132 24.3141 41.9375 24.4969 41.9375 24.6875V25.7656C41.9388 26.8137 42.3557 27.8184 43.0968 28.5594C43.8379 29.3005 44.8426 29.7174 45.8906 29.7188H48.0469C49.0949 29.7174 50.0996 29.3005 50.8407 28.5594C51.5818 27.8184 51.9987 26.8137 52 25.7656V24.6875C52 24.4969 51.9243 24.3141 51.7895 24.1793C51.6547 24.0445 51.4719 23.9688 51.2812 23.9688ZM43.375 25.7656V25.4062H43.7344C44.4016 25.4062 45.0414 25.6713 45.5132 26.1431C45.985 26.6148 46.25 27.2547 46.25 27.9219V28.2812H45.8906C45.2234 28.2812 44.5836 28.0162 44.1118 27.5444C43.64 27.0727 43.375 26.4328 43.375 25.7656ZM50.5625 25.7656C50.5625 26.4328 50.2975 27.0727 49.8257 27.5444C49.3539 28.0162 48.7141 28.2812 48.0469 28.2812H47.6875V27.9219C47.6875 27.2547 47.9525 26.6148 48.4243 26.1431C48.8961 25.6713 49.5359 25.4062 50.2031 25.4062H50.5625V25.7656Z" fill="black"></path><path d="M51.2812 16.7812H50.2031C49.5681 16.7821 48.9426 16.9359 48.3796 17.2296C47.8166 17.5234 47.3327 17.9485 46.9688 18.4689C46.6048 17.9485 46.1209 17.5234 45.5579 17.2296C44.9949 16.9359 44.3694 16.7821 43.7344 16.7812H42.6562C42.4656 16.7812 42.2828 16.857 42.148 16.9918C42.0132 17.1266 41.9375 17.3094 41.9375 17.5V18.5781C41.9388 19.6262 42.3557 20.6309 43.0968 21.3719C43.8379 22.113 44.8426 22.5299 45.8906 22.5312H48.0469C49.0949 22.5299 50.0996 22.113 50.8407 21.3719C51.5818 20.6309 51.9987 19.6262 52 18.5781V17.5C52 17.3094 51.9243 17.1266 51.7895 16.9918C51.6547 16.857 51.4719 16.7812 51.2812 16.7812ZM43.375 18.5781V18.2188H43.7344C44.4016 18.2188 45.0414 18.4838 45.5132 18.9556C45.985 19.4273 46.25 20.0672 46.25 20.7344V21.0938H45.8906C45.2234 21.0938 44.5836 20.8287 44.1118 20.3569C43.64 19.8852 43.375 19.2453 43.375 18.5781ZM50.5625 18.5781C50.5625 19.2453 50.2975 19.8852 49.8257 20.3569C49.3539 20.8287 48.7141 21.0938 48.0469 21.0938H47.6875V20.7344C47.6875 20.0672 47.9525 19.4273 48.4243 18.9556C48.8961 18.4838 49.5359 18.2188 50.2031 18.2188H50.5625V18.5781Z" fill="black"></path></g><defs><clipPath id="clip0_1_350"><rect width="46" height="46" fill="white" transform="translate(6 6)"></rect></clipPath></defs></svg> 