<?xml version="1.0" encoding="UTF-8"?> <svg xmlns="http://www.w3.org/2000/svg" width="58" height="58" viewBox="0 0 58 58" fill="none"><path d="M29.6479 14.0111C29.5137 13.7814 29.2706 13.6367 29.0021 13.6367C28.7351 13.6367 28.4905 13.7784 28.3563 14.0111L13.8277 39.1721C13.6935 39.4018 13.6935 39.6882 13.8277 39.9164C13.962 40.1461 14.2051 40.2907 14.4735 40.2907H43.5307C43.7976 40.2907 44.0422 40.149 44.1765 39.9164C44.3107 39.6867 44.3107 39.4003 44.1765 39.1721L29.6479 14.0111ZM15.7638 38.8025L29.0022 15.874L42.2406 38.8025H15.7638Z" fill="black"></path><path d="M28.3569 20.7153L33.631 30.0373C33.7682 30.2774 34.0203 30.4116 34.2768 30.4116C34.4021 30.4116 34.5333 30.3818 34.6467 30.3117C35.0017 30.1059 35.124 29.651 34.9181 29.2915L29.6482 19.9711C29.4424 19.6161 28.9875 19.4893 28.6281 19.6996C28.2731 19.907 28.1511 20.3603 28.3569 20.7153Z" fill="black"></path><path d="M35.0425 32.2951L37.831 36.91C37.9682 37.1501 38.2203 37.2844 38.4768 37.2844C38.6021 37.2844 38.7333 37.2545 38.8467 37.1844C39.2017 36.9786 39.324 36.5237 39.1181 36.1642L36.3339 31.5509C36.128 31.1959 35.6731 31.0692 35.3137 31.2795C34.9587 31.4868 34.8367 31.9402 35.0425 32.2951Z" fill="black"></path></svg> 