<?xml version="1.0" encoding="UTF-8"?> <svg xmlns="http://www.w3.org/2000/svg" width="51" height="52" viewBox="0 0 51 52" fill="none"><path d="M38.3113 3.9375H12.1143C11.2005 3.93859 10.3244 4.30211 9.67816 4.9483C9.03197 5.5945 8.66845 6.47061 8.66736 7.38447V41.8542C8.66736 42.037 8.73999 42.2124 8.86928 42.3416C8.99856 42.4709 9.17391 42.5436 9.35675 42.5436H21.0765C21.2593 42.5436 21.4346 42.4709 21.5639 42.3416C21.6932 42.2124 21.7658 42.037 21.7658 41.8542C21.7658 41.6713 21.6932 41.496 21.5639 41.3667C21.4346 41.2374 21.2593 41.1648 21.0765 41.1648H10.0461V7.38447C10.0461 6.83595 10.264 6.3099 10.6519 5.92204C11.0398 5.53419 11.5658 5.31629 12.1143 5.31629H35.5537C35.105 5.91231 34.863 6.63843 34.8643 7.38447V41.1648H32.1068C31.9239 41.1648 31.7486 41.2374 31.6193 41.3667C31.49 41.496 31.4174 41.6713 31.4174 41.8542C31.4174 42.037 31.49 42.2124 31.6193 42.3416C31.7486 42.4709 31.9239 42.5436 32.1068 42.5436H35.5537C35.7366 42.5436 35.9119 42.4709 36.0412 42.3416C36.1705 42.2124 36.2431 42.037 36.2431 41.8542V7.38447C36.2431 6.83595 36.461 6.3099 36.8489 5.92204C37.2367 5.53419 37.7628 5.31629 38.3113 5.31629C38.8598 5.31629 39.3859 5.53419 39.7737 5.92204C40.1616 6.3099 40.3795 6.83595 40.3795 7.38447V12.2102H38.3113C38.1285 12.2102 37.9531 12.2829 37.8238 12.4121C37.6945 12.5414 37.6219 12.7168 37.6219 12.8996C37.6219 13.0825 37.6945 13.2578 37.8238 13.3871C37.9531 13.5164 38.1285 13.589 38.3113 13.589H41.0689C41.2517 13.589 41.4271 13.5164 41.5564 13.3871C41.6856 13.2578 41.7583 13.0825 41.7583 12.8996V7.38447C41.7572 6.47061 41.3937 5.5945 40.7475 4.9483C40.1013 4.30211 39.2252 3.93859 38.3113 3.9375Z" fill="black"></path><path d="M32.1062 34.2716C32.1086 33.0872 31.7304 31.9334 31.0273 30.9802C30.3243 30.0271 29.3336 29.325 28.2013 28.9775C27.0691 28.6301 25.8551 28.6556 24.7384 29.0503C23.6218 29.445 22.6614 30.188 21.999 31.1698C21.3366 32.1517 21.0072 33.3203 21.0592 34.5036C21.1113 35.6868 21.5422 36.822 22.2883 37.7418C23.0344 38.6617 24.0563 39.3174 25.2034 39.6125C26.3504 39.9076 27.5619 39.8263 28.6593 39.3807V46.2546L26.8993 45.3743C26.8036 45.3265 26.6981 45.3016 26.5911 45.3016C26.4841 45.3016 26.3786 45.3265 26.2829 45.3743L24.5229 46.2546V41.1655C24.5229 40.9827 24.4503 40.8073 24.321 40.678C24.1917 40.5488 24.0164 40.4761 23.8335 40.4761C23.6507 40.4761 23.4753 40.5488 23.346 40.678C23.2168 40.8073 23.1441 40.9827 23.1441 41.1655V47.3701C23.1435 47.4879 23.173 47.6039 23.23 47.707C23.2869 47.8102 23.3694 47.897 23.4694 47.9592C23.5695 48.0215 23.6838 48.057 23.8015 48.0625C23.9192 48.068 24.0363 48.0432 24.1417 47.9905L26.5911 46.762L29.0405 47.9905C29.1459 48.0432 29.263 48.068 29.3807 48.0625C29.4984 48.057 29.6127 48.0215 29.7128 47.9592C29.8128 47.897 29.8953 47.8102 29.9522 47.707C30.0092 47.6039 30.0387 47.4879 30.0381 47.3701V38.5699C30.6831 38.0545 31.204 37.4005 31.562 36.6564C31.92 35.9124 32.106 35.0973 32.1062 34.2716ZM22.4547 34.2716C22.4547 33.4535 22.6973 32.6538 23.1518 31.9735C23.6063 31.2933 24.2524 30.7631 25.0082 30.4501C25.764 30.137 26.5957 30.0551 27.3981 30.2147C28.2004 30.3743 28.9375 30.7682 29.5159 31.3467C30.0944 31.9252 30.4884 32.6622 30.648 33.4646C30.8076 34.267 30.7257 35.0987 30.4126 35.8545C30.0995 36.6103 29.5694 37.2563 28.8891 37.7108C28.2089 38.1653 27.4092 38.4079 26.5911 38.4079C25.4944 38.4068 24.4429 37.9707 23.6675 37.1952C22.892 36.4197 22.4558 35.3683 22.4547 34.2716Z" fill="black"></path><path d="M13.4933 9.45301H20.3872C20.5701 9.45301 20.7454 9.38037 20.8747 9.25109C21.004 9.1218 21.0766 8.94645 21.0766 8.76361C21.0766 8.58077 21.004 8.40542 20.8747 8.27614C20.7454 8.14685 20.5701 8.07422 20.3872 8.07422H13.4933C13.3104 8.07422 13.1351 8.14685 13.0058 8.27614C12.8765 8.40542 12.8039 8.58077 12.8039 8.76361C12.8039 8.94645 12.8765 9.1218 13.0058 9.25109C13.1351 9.38037 13.3104 9.45301 13.4933 9.45301Z" fill="black"></path><path d="M13.4933 12.2108H31.4175C31.6004 12.2108 31.7757 12.1382 31.905 12.0089C32.0343 11.8796 32.1069 11.7043 32.1069 11.5214C32.1069 11.3386 32.0343 11.1632 31.905 11.034C31.7757 10.9047 31.6004 10.832 31.4175 10.832H13.4933C13.3104 10.832 13.1351 10.9047 13.0058 11.034C12.8765 11.1632 12.8039 11.3386 12.8039 11.5214C12.8039 11.7043 12.8765 11.8796 13.0058 12.0089C13.1351 12.1382 13.3104 12.2108 13.4933 12.2108Z" fill="black"></path><path d="M13.4933 14.9686H31.4175C31.6004 14.9686 31.7757 14.896 31.905 14.7667C32.0343 14.6374 32.1069 14.4621 32.1069 14.2792C32.1069 14.0964 32.0343 13.921 31.905 13.7918C31.7757 13.6625 31.6004 13.5898 31.4175 13.5898H13.4933C13.3104 13.5898 13.1351 13.6625 13.0058 13.7918C12.8765 13.921 12.8039 14.0964 12.8039 14.2792C12.8039 14.4621 12.8765 14.6374 13.0058 14.7667C13.1351 14.896 13.3104 14.9686 13.4933 14.9686Z" fill="black"></path><path d="M32.1069 23.9311V18.416C32.1069 18.2331 32.0343 18.0578 31.905 17.9285C31.7757 17.7992 31.6004 17.7266 31.4175 17.7266H13.4933C13.3104 17.7266 13.1351 17.7992 13.0058 17.9285C12.8765 18.0578 12.8039 18.2331 12.8039 18.416V23.9311C12.8039 24.1139 12.8765 24.2893 13.0058 24.4186C13.1351 24.5479 13.3104 24.6205 13.4933 24.6205H31.4175C31.6004 24.6205 31.7757 24.5479 31.905 24.4186C32.0343 24.2893 32.1069 24.1139 32.1069 23.9311ZM30.7281 23.2417H14.1827V19.1054H30.7281V23.2417Z" fill="black"></path><path d="M13.4933 28.7538H16.2509C16.4337 28.7538 16.6091 28.6812 16.7383 28.5519C16.8676 28.4226 16.9403 28.2472 16.9403 28.0644C16.9403 27.8816 16.8676 27.7062 16.7383 27.5769C16.6091 27.4476 16.4337 27.375 16.2509 27.375H13.4933C13.3104 27.375 13.1351 27.4476 13.0058 27.5769C12.8765 27.7062 12.8039 27.8816 12.8039 28.0644C12.8039 28.2472 12.8765 28.4226 13.0058 28.5519C13.1351 28.6812 13.3104 28.7538 13.4933 28.7538Z" fill="black"></path><path d="M13.4933 31.5116H19.0084C19.1913 31.5116 19.3666 31.439 19.4959 31.3097C19.6252 31.1804 19.6978 31.005 19.6978 30.8222C19.6978 30.6394 19.6252 30.464 19.4959 30.3347C19.3666 30.2054 19.1913 30.1328 19.0084 30.1328H13.4933C13.3104 30.1328 13.1351 30.2054 13.0058 30.3347C12.8765 30.464 12.8039 30.6394 12.8039 30.8222C12.8039 31.005 12.8765 31.1804 13.0058 31.3097C13.1351 31.439 13.3104 31.5116 13.4933 31.5116Z" fill="black"></path></svg> 