<?xml version="1.0" encoding="UTF-8"?> <svg xmlns="http://www.w3.org/2000/svg" width="48" height="48" viewBox="0 0 48 48" fill="none"><path d="M39.4014 38.7813V21.2345C39.4009 20.8793 39.2215 20.5388 38.9028 20.2877C38.584 20.0365 38.1517 19.8953 37.7009 19.8949H33.4305V9.47491C33.4297 8.81879 33.0985 8.18972 32.5096 7.72573C31.9208 7.26175 31.1223 7.00075 30.2895 7H17.1119C16.279 7.00074 15.4805 7.26172 14.8915 7.7257C14.3026 8.18968 13.9713 8.81875 13.9704 9.47491V19.8949H9.70048C9.24964 19.8953 8.81742 20.0365 8.49862 20.2877C8.17983 20.5388 8.00051 20.8793 8 21.2345V38.7813C8.00031 39.1366 8.17953 39.4772 8.49834 39.7285C8.81715 39.9798 9.24949 40.1212 9.70048 40.1217H37.7009C38.1519 40.1212 38.5842 39.9798 38.903 39.7285C39.2218 39.4772 39.4011 39.1366 39.4014 38.7813ZM15.8849 9.47491C15.8854 9.21865 16.0148 8.97299 16.2448 8.79178C16.4748 8.61058 16.7866 8.50863 17.1119 8.50829H30.2895C30.6147 8.50871 30.9264 8.6107 31.1563 8.79189C31.3862 8.97309 31.5156 9.21871 31.516 9.47491V19.8949H15.8849V9.47491ZM37.4868 38.6134H9.91456V21.4031H37.4868V38.6134Z" fill="black"></path><path d="M27.4159 26.6373C27.3839 26.5268 27.3207 26.4234 27.2311 26.3348C27.1414 26.2462 27.0276 26.1746 26.898 26.1254L24.1163 25.0701C23.9865 25.0214 23.8446 24.9961 23.7008 24.9961C23.557 24.9961 23.4151 25.0214 23.2853 25.0701L20.5032 26.1255C20.3737 26.1748 20.2599 26.2464 20.1703 26.335C20.0807 26.4236 20.0174 26.5269 19.9853 26.6373L19.2982 29.0088C19.2662 29.1192 19.2662 29.2339 19.2983 29.3443C19.3303 29.4547 19.3936 29.558 19.4833 29.6465L21.4086 31.5488C21.4981 31.6375 21.6119 31.7091 21.7415 31.7584C21.8711 31.8076 22.0131 31.8332 22.1569 31.8332H22.7435V34.2657C22.7435 34.4657 22.8444 34.6575 23.0239 34.799C23.2034 34.9404 23.4469 35.0199 23.7008 35.0199C23.9547 35.0199 24.1982 34.9404 24.3777 34.799C24.5572 34.6575 24.6581 34.4657 24.6581 34.2657V31.8331H25.2442C25.3881 31.8331 25.5302 31.8075 25.6598 31.7583C25.7895 31.709 25.9033 31.6374 25.993 31.5488L27.9188 29.6465C28.0085 29.5579 28.0716 29.4546 28.1035 29.3442C28.1354 29.2337 28.1352 29.1191 28.103 29.0087L27.4159 26.6373ZM24.7833 30.3248H22.6178L21.2674 28.9903L21.7493 27.3274L23.7008 26.5872L25.6518 27.3274L26.1342 28.9903L24.7833 30.3248Z" fill="black"></path><path d="M34.1497 37.7708H35.2827C35.4084 37.7708 35.5329 37.7514 35.6491 37.7135C35.7653 37.6756 35.8708 37.6201 35.9597 37.55C36.0487 37.48 36.1192 37.3968 36.1672 37.3053C36.2153 37.2138 36.24 37.1157 36.24 37.0166V32.301C36.24 32.101 36.1391 31.9092 35.9596 31.7678C35.7801 31.6263 35.5366 31.5469 35.2827 31.5469C35.0288 31.5469 34.7853 31.6263 34.6058 31.7678C34.4263 31.9092 34.3254 32.101 34.3254 32.301V36.2625H34.1497C33.8958 36.2625 33.6523 36.3419 33.4728 36.4834C33.2932 36.6248 33.1924 36.8166 33.1924 37.0166C33.1924 37.2167 33.2932 37.4085 33.4728 37.5499C33.6523 37.6913 33.8958 37.7708 34.1497 37.7708Z" fill="black"></path><path d="M31.1568 36.2656H30.6707C30.4168 36.2656 30.1733 36.3451 29.9938 36.4865C29.8142 36.6279 29.7134 36.8198 29.7134 37.0198C29.7134 37.2198 29.8142 37.4116 29.9938 37.553C30.1733 37.6945 30.4168 37.7739 30.6707 37.7739H31.1568C31.4107 37.7739 31.6541 37.6945 31.8337 37.553C32.0132 37.4116 32.1141 37.2198 32.1141 37.0198C32.1141 36.8198 32.0132 36.6279 31.8337 36.4865C31.6541 36.3451 31.4107 36.2656 31.1568 36.2656Z" fill="black"></path></svg> 