<svg width="34" height="45" viewBox="0 0 34 45" fill="none" xmlns="http://www.w3.org/2000/svg">
<path d="M29.6443 0H3.44734C2.53348 0.00109466 1.65736 0.364608 1.01117 1.0108C0.364974 1.657 0.00146087 2.53311 0.000366211 3.44697V37.9167C0.000366211 38.0995 0.0729987 38.2749 0.202285 38.4041C0.331572 38.5334 0.506922 38.6061 0.68976 38.6061H12.4095C12.5923 38.6061 12.7676 38.5334 12.8969 38.4041C13.0262 38.2749 13.0989 38.0995 13.0989 37.9167C13.0989 37.7338 13.0262 37.5585 12.8969 37.4292C12.7676 37.2999 12.5923 37.2273 12.4095 37.2273H1.37915V3.44697C1.37915 2.89845 1.59705 2.3724 1.98491 1.98454C2.37277 1.59669 2.89882 1.37879 3.44734 1.37879H26.8867C26.438 1.97481 26.196 2.70093 26.1973 3.44697V37.2273H23.4398C23.2569 37.2273 23.0816 37.2999 22.9523 37.4292C22.823 37.5585 22.7504 37.7338 22.7504 37.9167C22.7504 38.0995 22.823 38.2749 22.9523 38.4041C23.0816 38.5334 23.2569 38.6061 23.4398 38.6061H26.8867C27.0696 38.6061 27.2449 38.5334 27.3742 38.4041C27.5035 38.2749 27.5761 38.0995 27.5761 37.9167V3.44697C27.5761 2.89845 27.794 2.3724 28.1819 1.98454C28.5697 1.59669 29.0958 1.37879 29.6443 1.37879C30.1928 1.37879 30.7189 1.59669 31.1067 1.98454C31.4946 2.3724 31.7125 2.89845 31.7125 3.44697V8.27273H29.6443C29.4615 8.27273 29.2861 8.34536 29.1568 8.47465C29.0275 8.60393 28.9549 8.77928 28.9549 8.96212C28.9549 9.14496 29.0275 9.32031 29.1568 9.4496C29.2861 9.57888 29.4615 9.65152 29.6443 9.65152H32.4019C32.5847 9.65152 32.7601 9.57888 32.8894 9.4496C33.0186 9.32031 33.0913 9.14496 33.0913 8.96212V3.44697C33.0902 2.53311 32.7267 1.657 32.0805 1.0108C31.4343 0.364608 30.5582 0.00109466 29.6443 0Z" fill="black"/>
<path d="M23.4393 30.3341C23.4416 29.1497 23.0634 27.9959 22.3603 27.0427C21.6573 26.0896 20.6666 25.3875 19.5344 25.04C18.4021 24.6926 17.1881 24.7181 16.0714 25.1128C14.9548 25.5075 13.9944 26.2505 13.332 27.2323C12.6696 28.2142 12.3402 29.3828 12.3923 30.5661C12.4443 31.7493 12.8752 32.8845 13.6213 33.8043C14.3674 34.7242 15.3893 35.3799 16.5364 35.675C17.6834 35.9701 18.8949 35.8888 19.9923 35.4432V42.3171L18.2323 41.4368C18.1366 41.389 18.0311 41.3641 17.9241 41.3641C17.8171 41.3641 17.7116 41.389 17.6159 41.4368L15.8559 42.3171V37.228C15.8559 37.0452 15.7833 36.8698 15.654 36.7405C15.5247 36.6113 15.3494 36.5386 15.1665 36.5386C14.9837 36.5386 14.8083 36.6113 14.6791 36.7405C14.5498 36.8698 14.4771 37.0452 14.4771 37.228V43.4326C14.4765 43.5504 14.5061 43.6664 14.563 43.7695C14.6199 43.8727 14.7024 43.9595 14.8024 44.0217C14.9025 44.084 15.0168 44.1195 15.1345 44.125C15.2522 44.1305 15.3693 44.1057 15.4747 44.053L17.9241 42.8245L20.3735 44.053C20.4789 44.1057 20.596 44.1305 20.7137 44.125C20.8314 44.1195 20.9458 44.084 21.0458 44.0217C21.1458 43.9595 21.2283 43.8727 21.2852 43.7695C21.3422 43.6664 21.3717 43.5504 21.3711 43.4326V34.6324C22.0161 34.117 22.537 33.463 22.895 32.7189C23.253 31.9749 23.439 31.1598 23.4393 30.3341ZM13.7877 30.3341C13.7877 29.516 14.0303 28.7163 14.4848 28.036C14.9394 27.3558 15.5854 26.8256 16.3412 26.5126C17.097 26.1995 17.9287 26.1176 18.7311 26.2772C19.5334 26.4368 20.2705 26.8307 20.849 27.4092C21.4274 27.9877 21.8214 28.7247 21.981 29.5271C22.1406 30.3295 22.0587 31.1612 21.7456 31.917C21.4325 32.6728 20.9024 33.3188 20.2221 33.7733C19.5419 34.2278 18.7422 34.4704 17.9241 34.4704C16.8274 34.4693 15.7759 34.0332 15.0005 33.2577C14.225 32.4822 13.7888 31.4308 13.7877 30.3341Z" fill="black"/>
<path d="M4.8263 5.51551H11.7202C11.9031 5.51551 12.0784 5.44287 12.2077 5.31359C12.337 5.1843 12.4096 5.00895 12.4096 4.82611C12.4096 4.64327 12.337 4.46792 12.2077 4.33864C12.0784 4.20935 11.9031 4.13672 11.7202 4.13672H4.8263C4.64346 4.13672 4.46811 4.20935 4.33882 4.33864C4.20953 4.46792 4.1369 4.64327 4.1369 4.82611C4.1369 5.00895 4.20953 5.1843 4.33882 5.31359C4.46811 5.44287 4.64346 5.51551 4.8263 5.51551Z" fill="black"/>
<path d="M4.8263 8.27332H22.7505C22.9334 8.27332 23.1087 8.20069 23.238 8.0714C23.3673 7.94211 23.4399 7.76676 23.4399 7.58393C23.4399 7.40109 23.3673 7.22574 23.238 7.09645C23.1087 6.96716 22.9334 6.89453 22.7505 6.89453H4.8263C4.64346 6.89453 4.46811 6.96716 4.33882 7.09645C4.20953 7.22574 4.1369 7.40109 4.1369 7.58393C4.1369 7.76676 4.20953 7.94211 4.33882 8.0714C4.46811 8.20069 4.64346 8.27332 4.8263 8.27332Z" fill="black"/>
<path d="M4.8263 11.0311H22.7505C22.9334 11.0311 23.1087 10.9585 23.238 10.8292C23.3673 10.6999 23.4399 10.5246 23.4399 10.3417C23.4399 10.1589 23.3673 9.98355 23.238 9.85426C23.1087 9.72498 22.9334 9.65234 22.7505 9.65234H4.8263C4.64346 9.65234 4.46811 9.72498 4.33882 9.85426C4.20953 9.98355 4.1369 10.1589 4.1369 10.3417C4.1369 10.5246 4.20953 10.6999 4.33882 10.8292C4.46811 10.9585 4.64346 11.0311 4.8263 11.0311Z" fill="black"/>
<path d="M23.4399 19.9936V14.4785C23.4399 14.2956 23.3673 14.1203 23.238 13.991C23.1087 13.8617 22.9334 13.7891 22.7505 13.7891H4.8263C4.64346 13.7891 4.46811 13.8617 4.33882 13.991C4.20953 14.1203 4.1369 14.2956 4.1369 14.4785V19.9936C4.1369 20.1764 4.20953 20.3518 4.33882 20.4811C4.46811 20.6104 4.64346 20.683 4.8263 20.683H22.7505C22.9334 20.683 23.1087 20.6104 23.238 20.4811C23.3673 20.3518 23.4399 20.1764 23.4399 19.9936ZM22.0611 19.3042H5.51569V15.1679H22.0611V19.3042Z" fill="black"/>
<path d="M4.8263 24.8163H7.58387C7.76671 24.8163 7.94206 24.7437 8.07135 24.6144C8.20063 24.4851 8.27327 24.3097 8.27327 24.1269C8.27327 23.9441 8.20063 23.7687 8.07135 23.6394C7.94206 23.5101 7.76671 23.4375 7.58387 23.4375H4.8263C4.64346 23.4375 4.46811 23.5101 4.33882 23.6394C4.20953 23.7687 4.1369 23.9441 4.1369 24.1269C4.1369 24.3097 4.20953 24.4851 4.33882 24.6144C4.46811 24.7437 4.64346 24.8163 4.8263 24.8163Z" fill="black"/>
<path d="M4.8263 27.5741H10.3414C10.5243 27.5741 10.6996 27.5015 10.8289 27.3722C10.9582 27.2429 11.0308 27.0675 11.0308 26.8847C11.0308 26.7019 10.9582 26.5265 10.8289 26.3972C10.6996 26.2679 10.5243 26.1953 10.3414 26.1953H4.8263C4.64346 26.1953 4.46811 26.2679 4.33882 26.3972C4.20953 26.5265 4.1369 26.7019 4.1369 26.8847C4.1369 27.0675 4.20953 27.2429 4.33882 27.3722C4.46811 27.5015 4.64346 27.5741 4.8263 27.5741Z" fill="black"/>
</svg>
