<svg width="32" height="34" viewBox="0 0 32 34" fill="none" xmlns="http://www.w3.org/2000/svg">
<path d="M31.4014 31.7813V14.2345C31.4009 13.8793 31.2215 13.5388 30.9028 13.2877C30.584 13.0365 30.1517 12.8953 29.7009 12.8949H25.4305V2.47491C25.4297 1.81879 25.0985 1.18972 24.5096 0.725734C23.9208 0.26175 23.1223 0.000748677 22.2895 0H9.11192C8.27902 0.00073854 7.4805 0.261724 6.89155 0.7257C6.3026 1.18968 5.97131 1.81875 5.97038 2.47491V12.8949H1.70048C1.24964 12.8953 0.817416 13.0365 0.498624 13.2877C0.179833 13.5388 0.000511799 13.8793 0 14.2345V31.7813C0.000306464 32.1366 0.179532 32.4772 0.49834 32.7285C0.817148 32.9798 1.24949 33.1212 1.70048 33.1217H29.7009C30.1519 33.1212 30.5842 32.9798 30.903 32.7285C31.2218 32.4772 31.4011 32.1366 31.4014 31.7813ZM7.88493 2.47491C7.88537 2.21865 8.01478 1.97299 8.24479 1.79178C8.4748 1.61058 8.78663 1.50863 9.11192 1.50829H22.2895C22.6147 1.50871 22.9264 1.6107 23.1563 1.79189C23.3862 1.97309 23.5156 2.21871 23.516 2.47491V12.8949H7.88493V2.47491ZM29.4868 31.6134H1.91456V14.4031H29.4868V31.6134Z" fill="black"/>
<path d="M19.4159 19.6373C19.3839 19.5268 19.3207 19.4234 19.2311 19.3348C19.1414 19.2462 19.0276 19.1746 18.898 19.1254L16.1163 18.0701C15.9865 18.0214 15.8446 17.9961 15.7008 17.9961C15.557 17.9961 15.4151 18.0214 15.2853 18.0701L12.5032 19.1255C12.3737 19.1748 12.2599 19.2464 12.1703 19.335C12.0807 19.4236 12.0174 19.5269 11.9853 19.6373L11.2982 22.0088C11.2662 22.1192 11.2662 22.2339 11.2983 22.3443C11.3303 22.4547 11.3936 22.558 11.4833 22.6465L13.4086 24.5488C13.4981 24.6375 13.6119 24.7091 13.7415 24.7584C13.8711 24.8076 14.0131 24.8332 14.1569 24.8332H14.7435V27.2657C14.7435 27.4657 14.8444 27.6575 15.0239 27.799C15.2034 27.9404 15.4469 28.0199 15.7008 28.0199C15.9547 28.0199 16.1982 27.9404 16.3777 27.799C16.5572 27.6575 16.6581 27.4657 16.6581 27.2657V24.8331H17.2442C17.3881 24.8331 17.5302 24.8075 17.6598 24.7583C17.7895 24.709 17.9033 24.6374 17.993 24.5488L19.9188 22.6465C20.0085 22.5579 20.0716 22.4546 20.1035 22.3442C20.1354 22.2337 20.1352 22.1191 20.103 22.0087L19.4159 19.6373ZM16.7833 23.3248H14.6178L13.2674 21.9903L13.7493 20.3274L15.7008 19.5872L17.6518 20.3274L18.1342 21.9903L16.7833 23.3248Z" fill="black"/>
<path d="M26.1497 30.7708H27.2827C27.4084 30.7708 27.5329 30.7514 27.6491 30.7135C27.7653 30.6756 27.8708 30.6201 27.9597 30.55C28.0487 30.48 28.1192 30.3968 28.1672 30.3053C28.2153 30.2138 28.24 30.1157 28.24 30.0166V25.301C28.24 25.101 28.1391 24.9092 27.9596 24.7678C27.7801 24.6263 27.5366 24.5469 27.2827 24.5469C27.0288 24.5469 26.7853 24.6263 26.6058 24.7678C26.4263 24.9092 26.3254 25.101 26.3254 25.301V29.2625H26.1497C25.8958 29.2625 25.6523 29.3419 25.4728 29.4834C25.2932 29.6248 25.1924 29.8166 25.1924 30.0166C25.1924 30.2167 25.2932 30.4085 25.4728 30.5499C25.6523 30.6913 25.8958 30.7708 26.1497 30.7708Z" fill="black"/>
<path d="M23.1568 29.2656H22.6707C22.4168 29.2656 22.1733 29.3451 21.9938 29.4865C21.8142 29.6279 21.7134 29.8198 21.7134 30.0198C21.7134 30.2198 21.8142 30.4116 21.9938 30.553C22.1733 30.6945 22.4168 30.7739 22.6707 30.7739H23.1568C23.4107 30.7739 23.6541 30.6945 23.8337 30.553C24.0132 30.4116 24.1141 30.2198 24.1141 30.0198C24.1141 29.8198 24.0132 29.6279 23.8337 29.4865C23.6541 29.3451 23.4107 29.2656 23.1568 29.2656Z" fill="black"/>
</svg>
