<svg width="183" height="17" viewBox="0 0 183 17" fill="none" xmlns="http://www.w3.org/2000/svg">
<path d="M9.4375 4.21875C9.34375 3.42708 8.96354 2.8125 8.29688 2.375C7.63021 1.9375 6.8125 1.71875 5.84375 1.71875C5.13542 1.71875 4.51563 1.83333 3.98438 2.0625C3.45833 2.29167 3.04688 2.60677 2.75 3.00781C2.45833 3.40885 2.3125 3.86458 2.3125 4.375C2.3125 4.80208 2.41406 5.16927 2.61719 5.47656C2.82552 5.77865 3.09115 6.03125 3.41406 6.23437C3.73698 6.43229 4.07552 6.59635 4.42969 6.72656C4.78385 6.85156 5.10938 6.95312 5.40625 7.03125L7.03125 7.46875C7.44792 7.57812 7.91146 7.72917 8.42188 7.92187C8.9375 8.11458 9.42969 8.3776 9.89844 8.71094C10.3724 9.03906 10.763 9.46094 11.0703 9.97656C11.3776 10.4922 11.5313 11.125 11.5313 11.875C11.5313 12.7396 11.3047 13.5208 10.8516 14.2187C10.4036 14.9167 9.7474 15.4714 8.88281 15.8828C8.02344 16.2943 6.97917 16.5 5.75 16.5C4.60417 16.5 3.61198 16.3151 2.77344 15.9453C1.9401 15.5755 1.28385 15.0599 0.804688 14.3984C0.330729 13.737 0.0625 12.9688 3.72529e-08 12.0938H2C2.05208 12.6979 2.25521 13.1979 2.60938 13.5937C2.96875 13.9844 3.42188 14.276 3.96875 14.4688C4.52083 14.6562 5.11458 14.75 5.75 14.75C6.48958 14.75 7.15365 14.6302 7.74219 14.3906C8.33073 14.1458 8.79688 13.8073 9.14063 13.375C9.48438 12.9375 9.65625 12.4271 9.65625 11.8437C9.65625 11.3125 9.50781 10.8802 9.21094 10.5469C8.91406 10.2135 8.52344 9.94271 8.03906 9.73438C7.55469 9.52604 7.03125 9.34375 6.46875 9.1875L4.5 8.625C3.25 8.26562 2.26042 7.7526 1.53125 7.08594C0.802083 6.41927 0.4375 5.54687 0.4375 4.46875C0.4375 3.57292 0.679688 2.79167 1.16406 2.125C1.65365 1.45312 2.3099 0.932291 3.13281 0.5625C3.96094 0.187499 4.88542 -5.96046e-07 5.90625 -5.96046e-07C6.9375 -5.96046e-07 7.85417 0.184895 8.65625 0.554687C9.45833 0.91927 10.0938 1.41927 10.5625 2.05469C11.0365 2.6901 11.2865 3.41146 11.3125 4.21875H9.4375ZM20.4418 1.9375V0.21875H32.4418V1.9375H27.4105V16.2188H25.473V1.9375H20.4418ZM42.032 16.2188V0.21875H51.6883V1.9375H43.9695V7.34375H51.1883V9.0625H43.9695V14.5H51.8133V16.2188H42.032ZM74.468 0.21875V16.2188H72.593L63.8742 3.65625H63.718V16.2188H61.7805V0.21875H63.6555L72.4055 12.8125H72.5617V0.21875H74.468ZM93.6949 4.21875C93.6012 3.42708 93.221 2.8125 92.5543 2.375C91.8876 1.9375 91.0699 1.71875 90.1012 1.71875C89.3928 1.71875 88.773 1.83333 88.2418 2.0625C87.7158 2.29167 87.3043 2.60677 87.0074 3.00781C86.7158 3.40885 86.5699 3.86458 86.5699 4.375C86.5699 4.80208 86.6715 5.16927 86.8746 5.47656C87.0829 5.77865 87.3486 6.03125 87.6715 6.23437C87.9944 6.43229 88.3329 6.59635 88.6871 6.72656C89.0413 6.85156 89.3668 6.95312 89.6637 7.03125L91.2887 7.46875C91.7053 7.57812 92.1689 7.72917 92.6793 7.92187C93.1949 8.11458 93.6871 8.3776 94.1559 8.71094C94.6298 9.03906 95.0204 9.46094 95.3277 9.97656C95.635 10.4922 95.7887 11.125 95.7887 11.875C95.7887 12.7396 95.5621 13.5208 95.109 14.2187C94.6611 14.9167 94.0048 15.4714 93.1402 15.8828C92.2809 16.2943 91.2366 16.5 90.0074 16.5C88.8616 16.5 87.8694 16.3151 87.0309 15.9453C86.1975 15.5755 85.5413 15.0599 85.0621 14.3984C84.5882 13.737 84.3199 12.9688 84.2574 12.0938H86.2574C86.3095 12.6979 86.5126 13.1979 86.8668 13.5937C87.2262 13.9844 87.6793 14.276 88.2262 14.4688C88.7783 14.6562 89.372 14.75 90.0074 14.75C90.747 14.75 91.4111 14.6302 91.9996 14.3906C92.5882 14.1458 93.0543 13.8073 93.398 13.375C93.7418 12.9375 93.9137 12.4271 93.9137 11.8437C93.9137 11.3125 93.7652 10.8802 93.4684 10.5469C93.1715 10.2135 92.7809 9.94271 92.2965 9.73438C91.8121 9.52604 91.2887 9.34375 90.7262 9.1875L88.7574 8.625C87.5074 8.26562 86.5178 7.7526 85.7887 7.08594C85.0595 6.41927 84.6949 5.54687 84.6949 4.46875C84.6949 3.57292 84.9371 2.79167 85.4215 2.125C85.9111 1.45312 86.5673 0.932291 87.3902 0.5625C88.2184 0.187499 89.1428 -5.96046e-07 90.1637 -5.96046e-07C91.1949 -5.96046e-07 92.1116 0.184895 92.9137 0.554687C93.7158 0.91927 94.3512 1.41927 94.8199 2.05469C95.2939 2.6901 95.5439 3.41146 95.5699 4.21875H93.6949ZM105.574 16.2188V0.21875H107.512V14.5H114.949V16.2188H105.574ZM126.215 16.2188H124.184L130.059 0.21875H132.059L137.934 16.2188H135.903L131.121 2.75H130.996L126.215 16.2188ZM126.965 9.96875H135.153V11.6875H126.965V9.96875ZM159.714 0.21875V16.2188H157.839L149.12 3.65625H148.964V16.2188H147.026V0.21875H148.901L157.651 12.8125H157.807V0.21875H159.714ZM175.128 16.2188H170.191V0.21875H175.347C176.899 0.21875 178.227 0.539062 179.331 1.17969C180.435 1.8151 181.282 2.72917 181.87 3.92187C182.459 5.10937 182.753 6.53125 182.753 8.1875C182.753 9.85417 182.456 11.2891 181.863 12.4922C181.269 13.6901 180.404 14.612 179.269 15.2578C178.133 15.8984 176.753 16.2188 175.128 16.2188ZM172.128 14.5H175.003C176.326 14.5 177.422 14.2448 178.292 13.7344C179.162 13.224 179.81 12.4974 180.238 11.5547C180.665 10.612 180.878 9.48958 180.878 8.1875C180.878 6.89583 180.667 5.78385 180.245 4.85156C179.823 3.91406 179.193 3.19531 178.355 2.69531C177.516 2.1901 176.472 1.9375 175.222 1.9375H172.128V14.5Z" fill="#001C31"/>
</svg>
