<svg width="40" height="40" viewBox="0 0 40 40" fill="none" xmlns="http://www.w3.org/2000/svg">
<g clip-path="url(#clip0_1_250)">
<rect width="40" height="40" rx="20" fill="#001C31"/>
<path d="M22.4907 32.6092H22.6861V33H17.1362V32.6092H17.3316C17.5401 32.6092 17.7225 32.531 17.8788 32.3747C18.0351 32.2183 18.1654 32.0359 18.2696 31.8275C18.3999 31.619 18.4911 31.3976 18.5432 31.1631C18.5953 30.9025 18.6214 30.668 18.6214 30.4596V8.65094H14.0877C13.6708 8.65094 13.306 8.74214 12.9933 8.92452C12.6807 9.10691 12.4201 9.34142 12.2117 9.62803C12.0032 9.88859 11.8469 10.1882 11.7427 10.527C11.6384 10.8396 11.5863 11.1523 11.5863 11.465H11.1955V7.20485H28.744V11.465H28.3532C28.3532 11.1523 28.3011 10.8396 28.1969 10.527C28.0926 10.1882 27.9363 9.88859 27.7278 9.62803C27.5194 9.34142 27.2588 9.10691 26.9462 8.92452C26.6335 8.74214 26.2687 8.65094 25.8518 8.65094H21.24V30.4596C21.24 30.668 21.266 30.9025 21.3181 31.1631C21.3703 31.3976 21.4484 31.619 21.5526 31.8275C21.6829 32.0359 21.8132 32.2183 21.9435 32.3747C22.0998 32.531 22.2822 32.6092 22.4907 32.6092Z" fill="white"/>
<path d="M22.921 28.8894H23.0426C23.1562 28.8894 23.2617 28.8488 23.359 28.7677C23.4563 28.6704 23.5375 28.5568 23.6024 28.427C23.6835 28.281 23.7403 28.135 23.7727 27.989C23.8051 27.8268 23.8214 27.6808 23.8214 27.551V20.9318H16.0342V27.551C16.0342 27.6808 16.0504 27.8268 16.0828 27.989C16.1153 28.135 16.1639 28.2729 16.2288 28.4027C16.2937 28.5325 16.3667 28.6461 16.4479 28.7434C16.5452 28.8407 16.6588 28.8894 16.7885 28.8894H16.9102V29.1328H13.5033V28.8894H13.625C13.7385 28.8894 13.844 28.8488 13.9413 28.7677C14.0387 28.6704 14.1198 28.5568 14.1847 28.427C14.2658 28.281 14.3226 28.135 14.355 27.989C14.3875 27.8268 14.4037 27.6808 14.4037 27.551V14.5804C14.4037 14.4668 14.3875 14.337 14.355 14.191C14.3226 14.045 14.2739 13.9071 14.209 13.7773C14.1441 13.6475 14.063 13.5421 13.9657 13.461C13.8683 13.3636 13.7548 13.315 13.625 13.315H13.5033V13.0716H16.9102V13.315H16.7885C16.6588 13.315 16.5452 13.3636 16.4479 13.461C16.3505 13.5421 16.2694 13.6475 16.2045 13.7773C16.1558 13.9071 16.1153 14.045 16.0828 14.191C16.0504 14.337 16.0342 14.4668 16.0342 14.5804V20.0801H23.8214V14.5804C23.8214 14.4668 23.8051 14.337 23.7727 14.191C23.7403 14.045 23.6916 13.9071 23.6267 13.7773C23.5618 13.6475 23.4807 13.5421 23.3833 13.461C23.286 13.3636 23.1724 13.315 23.0426 13.315H22.921V13.0716H26.3279V13.315H26.2062C26.0764 13.315 25.9629 13.3636 25.8655 13.461C25.7682 13.5421 25.6871 13.6475 25.6222 13.7773C25.5735 13.9071 25.5329 14.045 25.5005 14.191C25.468 14.337 25.4518 14.4668 25.4518 14.5804V27.551C25.4518 27.6808 25.468 27.8268 25.5005 27.989C25.5492 28.135 25.6059 28.2729 25.6708 28.4027C25.7357 28.5325 25.8087 28.6461 25.8899 28.7434C25.9872 28.8407 26.0926 28.8894 26.2062 28.8894H26.3279V29.1328H22.921V28.8894Z" fill="white"/>
</g>
<defs>
<clipPath id="clip0_1_250">
<rect width="40" height="40" rx="20" fill="white"/>
</clipPath>
</defs>
</svg>
