<svg width="58" height="58" viewBox="0 0 58 58" fill="none" xmlns="http://www.w3.org/2000/svg">
<g clip-path="url(#clip0_1_337)">
<path d="M32.2188 41.8809H31.4531V41.1234C31.4531 40.5206 31.2111 39.9425 30.7804 39.5163C30.3496 39.0901 29.7654 38.8506 29.1562 38.8506H28.497L28.9832 35.1605C29.0058 34.963 28.949 34.7647 28.8252 34.6083C28.7013 34.4519 28.5203 34.3499 28.3212 34.3242C28.1221 34.2986 27.9207 34.3514 27.7606 34.4713C27.6004 34.5911 27.4943 34.7685 27.465 34.965L26.9528 38.8506H16.0319L11.6724 10.8112C18.4777 10.6729 25.169 9.05567 31.2724 6.07413L27.8639 31.9347C27.8377 32.134 27.8926 32.3355 28.0165 32.4948C28.1404 32.654 28.3232 32.7581 28.5246 32.784C28.726 32.8099 28.9296 32.7556 29.0906 32.633C29.2515 32.5104 29.3567 32.3295 29.3829 32.1302L32.9813 4.85746C32.9997 4.72071 32.98 4.58159 32.9243 4.45511C32.8687 4.32863 32.7792 4.21959 32.6655 4.13975C32.5518 4.05992 32.4182 4.01232 32.2792 4.00209C32.1401 3.99186 32.0009 4.01938 31.8765 4.0817L30.7449 4.64231C24.5434 7.70072 17.7104 9.2967 10.7812 9.30519C10.6709 9.30523 10.5618 9.32888 10.4616 9.37451C10.3613 9.42014 10.2722 9.48668 10.2004 9.56957C10.1285 9.65246 10.0756 9.74974 10.0453 9.85474C10.015 9.95974 10.008 10.07 10.0248 10.1779L14.4823 38.8506H13.8438C13.2346 38.8506 12.6504 39.0901 12.2196 39.5163C11.7889 39.9425 11.5469 40.5206 11.5469 41.1234V41.8809H10.7812C10.1721 41.8809 9.58786 42.1204 9.15711 42.5466C8.72637 42.9728 8.48438 43.5509 8.48438 44.1537V51.7294C8.48438 51.9304 8.56504 52.123 8.70862 52.2651C8.8522 52.4072 9.04694 52.487 9.25 52.487H33.75C33.9531 52.487 34.1478 52.4072 34.2914 52.2651C34.435 52.123 34.5156 51.9304 34.5156 51.7294V44.1537C34.5156 43.5509 34.2736 42.9728 33.8429 42.5466C33.4121 42.1204 32.8279 41.8809 32.2188 41.8809ZM32.9844 50.9719H10.0156V44.1537C10.0156 43.9527 10.0963 43.7601 10.2399 43.618C10.3835 43.4759 10.5782 43.3961 10.7812 43.3961H15.375C15.5781 43.3961 15.7728 43.3163 15.9164 43.1742C16.06 43.0321 16.1406 42.8394 16.1406 42.6385C16.1406 42.4376 16.06 42.2449 15.9164 42.1028C15.7728 41.9608 15.5781 41.8809 15.375 41.8809H13.0781V41.1234C13.0781 40.9224 13.1588 40.7298 13.3024 40.5877C13.446 40.4456 13.6407 40.3658 13.8438 40.3658H29.1562C29.3593 40.3658 29.554 40.4456 29.6976 40.5877C29.8412 40.7298 29.9219 40.9224 29.9219 41.1234V41.8809H18.4375C18.2344 41.8809 18.0397 41.9608 17.8961 42.1028C17.7525 42.2449 17.6719 42.4376 17.6719 42.6385C17.6719 42.8394 17.7525 43.0321 17.8961 43.1742C18.0397 43.3163 18.2344 43.3961 18.4375 43.3961H32.2188C32.4218 43.3961 32.6165 43.4759 32.7601 43.618C32.9037 43.7601 32.9844 43.9527 32.9844 44.1537V50.9719Z" fill="black"/>
<path d="M26.0938 46.4258H16.9062C16.7032 46.4258 16.5085 46.5056 16.3649 46.6477C16.2213 46.7897 16.1406 46.9824 16.1406 47.1834C16.1406 47.3843 16.2213 47.577 16.3649 47.719C16.5085 47.8611 16.7032 47.9409 16.9062 47.9409H26.0938C26.2968 47.9409 26.4915 47.8611 26.6351 47.719C26.7787 47.577 26.8594 47.3843 26.8594 47.1834C26.8594 46.9824 26.7787 46.7897 26.6351 46.6477C26.4915 46.5056 26.2968 46.4258 26.0938 46.4258Z" fill="black"/>
<path d="M27.0584 16.3332C27.0142 16.1989 26.9329 16.0794 26.8237 15.9884C26.7146 15.8974 26.5818 15.8384 26.4405 15.818L23.5013 15.3946L22.189 12.7597C22.1188 12.6414 22.0186 12.5433 21.8983 12.4751C21.7779 12.407 21.6417 12.3711 21.503 12.3711C21.3644 12.3711 21.2281 12.407 21.1078 12.4751C20.9875 12.5433 20.8872 12.6414 20.817 12.7597L19.5017 15.3946L16.5625 15.818C16.4213 15.8386 16.2887 15.8978 16.1797 15.9889C16.0707 16.08 15.9896 16.1995 15.9456 16.3338C15.9015 16.4682 15.8963 16.612 15.9305 16.7491C15.9647 16.8862 16.0369 17.0111 16.1391 17.1097L18.2652 19.1612L17.763 22.0574C17.7388 22.1968 17.7546 22.34 17.8084 22.4709C17.8623 22.6018 17.952 22.7152 18.0676 22.7983C18.1832 22.8814 18.32 22.9308 18.4624 22.941C18.6049 22.9512 18.7474 22.9217 18.8739 22.8559L21.5 21.4885L24.1291 22.8559C24.2556 22.9217 24.3981 22.9512 24.5406 22.941C24.683 22.9308 24.8198 22.8814 24.9354 22.7983C25.051 22.7152 25.1407 22.6018 25.1946 22.4709C25.2484 22.34 25.2642 22.1968 25.24 22.0574L24.7378 19.1612L26.8639 17.1097C26.9663 17.0111 27.0388 16.8861 27.0732 16.7489C27.1076 16.6117 27.1024 16.4677 27.0584 16.3332ZM23.3834 18.3536C23.2943 18.4393 23.2277 18.545 23.1891 18.6618C23.1506 18.7786 23.1413 18.903 23.1621 19.0241L23.4684 20.8006L21.856 19.962C21.7462 19.9049 21.624 19.8751 21.5 19.8751C21.3759 19.8751 21.2538 19.9049 21.144 19.962L19.5315 20.8006L19.8378 19.0241C19.8586 18.903 19.8494 18.7786 19.8108 18.6618C19.7723 18.545 19.7056 18.4393 19.6165 18.3536L18.315 17.0961L20.1172 16.8362C20.24 16.8186 20.3566 16.7718 20.4571 16.6998C20.5575 16.6277 20.6387 16.5326 20.6938 16.4226L21.5 14.8067L22.3062 16.4226C22.3612 16.5326 22.4424 16.6277 22.5429 16.6998C22.6433 16.7718 22.7599 16.8186 22.8827 16.8362L24.685 17.0961L23.3834 18.3536Z" fill="black"/>
<path d="M26.0938 27.488C26.0938 27.2871 26.0131 27.0944 25.8695 26.9524C25.7259 26.8103 25.5312 26.7305 25.3281 26.7305H17.6719C17.4688 26.7305 17.2741 26.8103 17.1305 26.9524C16.9869 27.0944 16.9062 27.2871 16.9062 27.488C16.9062 27.689 16.9869 27.8817 17.1305 28.0237C17.2741 28.1658 17.4688 28.2456 17.6719 28.2456H25.3281C25.5312 28.2456 25.7259 28.1658 25.8695 28.0237C26.0131 27.8817 26.0938 27.689 26.0938 27.488Z" fill="black"/>
<path d="M19.2031 29.7578C19.0001 29.7578 18.8053 29.8376 18.6617 29.9797C18.5182 30.1218 18.4375 30.3145 18.4375 30.5154C18.4375 30.7163 18.5182 30.909 18.6617 31.0511C18.8053 31.1931 19.0001 31.273 19.2031 31.273H23.7969C23.9999 31.273 24.1947 31.1931 24.3383 31.0511C24.4818 30.909 24.5625 30.7163 24.5625 30.5154C24.5625 30.3145 24.4818 30.1218 24.3383 29.9797C24.1947 29.8376 23.9999 29.7578 23.7969 29.7578H19.2031Z" fill="black"/>
</g>
<defs>
<clipPath id="clip0_1_337">
<rect width="58" height="58" fill="white"/>
</clipPath>
</defs>
</svg>
