<svg width="58" height="58" viewBox="0 0 58 58" fill="none" xmlns="http://www.w3.org/2000/svg">
<g clip-path="url(#clip0_1_386)">
<path d="M25.0801 45.3102L25.4082 45.3654C25.4679 45.3757 25.5289 45.3757 25.5887 45.3654L25.9168 45.3102C29.6249 44.6972 32.9955 42.7707 35.4245 39.8758C37.8535 36.9809 39.182 33.3071 39.1719 29.5128V18.8657C39.1719 18.7192 39.1143 18.5787 39.0118 18.4752C38.9092 18.3716 38.7701 18.3134 38.6251 18.3134C37.9001 18.3126 37.2051 18.0214 36.6925 17.5037C36.1799 16.9861 35.8916 16.2843 35.8907 15.5522C35.8907 15.4058 35.8331 15.2653 35.7305 15.1617C35.6279 15.0582 35.4888 15 35.3438 15H32.6094C32.4644 15 32.3253 15.0582 32.2227 15.1617C32.1202 15.2653 32.0626 15.4058 32.0626 15.5522C32.0626 15.6987 32.1202 15.8392 32.2227 15.9427C32.3253 16.0463 32.4644 16.1045 32.6094 16.1045H34.8358C34.9551 16.93 35.3351 17.6946 35.9193 18.2845C36.5035 18.8744 37.2607 19.2582 38.0782 19.3787V29.5128C38.0876 33.045 36.851 36.4652 34.59 39.1603C32.329 41.8554 29.1914 43.6494 25.7396 44.2206L25.5001 44.2609L25.2605 44.2206C21.8087 43.6494 18.6711 41.8554 16.4101 39.1603C14.1491 36.4652 12.9125 33.045 12.9219 29.5128V19.3787C13.7394 19.2582 14.4966 18.8744 15.0808 18.2845C15.665 17.6946 16.045 16.93 16.1644 16.1045H30.4219C30.567 16.1045 30.7061 16.0463 30.8086 15.9427C30.9112 15.8392 30.9688 15.6987 30.9688 15.5522C30.9688 15.4058 30.9112 15.2653 30.8086 15.1617C30.7061 15.0582 30.567 15 30.4219 15H15.6563C15.5113 15 15.3722 15.0582 15.2696 15.1617C15.1671 15.2653 15.1094 15.4058 15.1094 15.5522C15.1086 16.2843 14.8202 16.9861 14.3076 17.5037C13.795 18.0214 13.1 18.3126 12.3751 18.3134C12.23 18.3134 12.0909 18.3716 11.9884 18.4752C11.8858 18.5787 11.8282 18.7192 11.8282 18.8657V29.5128C11.818 33.3066 13.146 36.9801 15.5744 39.8749C18.0027 42.7696 21.3726 44.6965 25.0801 45.3102Z" fill="black"/>
<path d="M16.4471 36.4001C16.3873 36.4402 16.3359 36.4919 16.2958 36.5522C16.2557 36.6124 16.2278 36.68 16.2137 36.7511C16.1995 36.8223 16.1993 36.8955 16.2132 36.9667C16.2271 37.0379 16.2547 37.1056 16.2945 37.166C17.3324 38.7332 18.676 40.0699 20.2431 41.0945C21.8103 42.1191 23.568 42.8099 25.4088 43.1247C25.4693 43.1343 25.5309 43.1343 25.5914 43.1247C28.7805 42.5881 31.6769 40.9245 33.7638 38.431C35.8507 35.9375 36.9921 32.7762 36.9845 29.5115V20.6121C36.9844 20.5047 36.9533 20.3997 36.8951 20.3098C36.8368 20.22 36.7538 20.1492 36.6563 20.1063C35.5185 19.6045 34.6103 18.6874 34.1134 17.5384C34.0708 17.4399 34.0008 17.3562 33.9118 17.2973C33.8228 17.2385 33.7188 17.2071 33.6124 17.207H17.3872C17.2808 17.2071 17.1768 17.2385 17.0878 17.2973C16.9989 17.3562 16.9288 17.4399 16.8863 17.5384C16.3894 18.6874 15.4811 19.6045 14.3433 20.1063C14.2458 20.1492 14.1629 20.22 14.1046 20.3098C14.0463 20.3997 14.0152 20.5047 14.0152 20.6121V29.5115C14.0109 31.4186 14.3988 33.3059 15.1543 35.0537C15.1828 35.1206 15.2241 35.1811 15.2758 35.2318C15.3275 35.2824 15.3886 35.3223 15.4556 35.3491C15.5226 35.3758 15.5942 35.3889 15.6662 35.3877C15.7383 35.3864 15.8094 35.3707 15.8754 35.3416C15.9415 35.3125 16.0012 35.2705 16.0511 35.2181C16.101 35.1656 16.1402 35.1036 16.1663 35.0358C16.1924 34.968 16.2051 34.8957 16.2034 34.8229C16.2018 34.7502 16.1859 34.6785 16.1567 34.6119C15.462 33.0032 15.1054 31.2665 15.1095 29.5115V20.9628C16.2395 20.381 17.1583 19.4532 17.7345 18.3121H33.2657C33.8419 19.4532 34.7607 20.381 35.8907 20.9628V29.5115C35.8978 32.499 34.8589 35.3929 32.9575 37.6818C31.0561 39.9706 28.4147 41.5071 25.5001 42.0197C23.8239 41.7203 22.225 41.0816 20.7996 40.142C19.3742 39.2025 18.1517 37.9815 17.2056 36.5525C17.1251 36.4307 16.9999 36.3463 16.8576 36.3177C16.7154 36.2891 16.5677 36.3187 16.4471 36.4001Z" fill="black"/>
<path d="M41.4242 46.477L42.9456 43.4104C42.9873 43.326 43.007 43.2321 43.0027 43.1379C42.9983 43.0436 42.9701 42.952 42.9207 42.8719C42.8714 42.7917 42.8025 42.7257 42.7207 42.6801C42.6389 42.6345 42.5468 42.6108 42.4534 42.6113H39.1721V40.9546C39.1721 40.8081 39.1145 40.6677 39.012 40.5641C38.9094 40.4605 38.7703 40.4023 38.6253 40.4023H36.6713C36.5262 40.4023 36.3871 40.4605 36.2846 40.5641C36.182 40.6677 36.1244 40.8081 36.1244 40.9546C36.1244 41.101 36.182 41.2415 36.2846 41.3451C36.3871 41.4486 36.5262 41.5068 36.6713 41.5068H38.0784V47.0292H12.9221V41.5068H14.3292C14.4743 41.5068 14.6134 41.4486 14.7159 41.3451C14.8185 41.2415 14.8761 41.101 14.8761 40.9546C14.8761 40.8081 14.8185 40.6677 14.7159 40.5641C14.6134 40.4605 14.4743 40.4023 14.3292 40.4023H12.3753C12.2302 40.4023 12.0911 40.4605 11.9886 40.5641C11.886 40.6677 11.8284 40.8081 11.8284 40.9546V42.6113H8.54713C8.4539 42.6113 8.36221 42.6353 8.28076 42.6811C8.19932 42.7269 8.13082 42.793 8.08178 42.873C8.03274 42.9531 8.00478 43.0445 8.00056 43.1386C7.99634 43.2326 8.016 43.3262 8.05768 43.4104L9.57635 46.477L8.05768 49.5436C8.016 49.6278 7.99634 49.7213 8.00056 49.8154C8.00478 49.9094 8.03274 50.0008 8.08178 50.0809C8.13082 50.161 8.19932 50.227 8.28076 50.2729C8.36221 50.3187 8.4539 50.3427 8.54713 50.3426H14.5628C14.7078 50.3426 14.8469 50.2845 14.9495 50.1809C15.052 50.0773 15.1096 49.9369 15.1096 49.7904C15.1096 49.6439 15.052 49.5035 14.9495 49.3999C14.8469 49.2963 14.7078 49.2382 14.5628 49.2382H9.43197L10.6772 46.7238C10.7151 46.6472 10.7349 46.5627 10.7349 46.477C10.7349 46.3913 10.7151 46.3068 10.6772 46.2301L9.43197 43.7158H11.8284V47.5814C11.8284 47.7279 11.886 47.8684 11.9886 47.9719C12.0911 48.0755 12.2302 48.1337 12.3753 48.1337H38.6253C38.7703 48.1337 38.9094 48.0755 39.012 47.9719C39.1145 47.8684 39.1721 47.7279 39.1721 47.5814V43.7158H41.5685L40.3233 46.2301C40.2854 46.3068 40.2656 46.3913 40.2656 46.477C40.2656 46.5627 40.2854 46.6472 40.3233 46.7238L41.5685 49.2382H36.4378C36.2927 49.2382 36.1536 49.2963 36.0511 49.3999C35.9485 49.5035 35.8909 49.6439 35.8909 49.7904C35.8909 49.9369 35.9485 50.0773 36.0511 50.1809C36.1536 50.2845 36.2927 50.3426 36.4378 50.3426H42.4534C42.5468 50.3432 42.6389 50.3195 42.7207 50.2739C42.8025 50.2282 42.8714 50.1622 42.9207 50.0821C42.9701 50.0019 42.9983 49.9104 43.0027 49.8161C43.007 49.7218 42.9873 49.628 42.9456 49.5436L41.4242 46.477Z" fill="black"/>
<path d="M32.489 27.8603C32.4575 27.7623 32.3995 27.6752 32.3215 27.6087C32.2435 27.5422 32.1486 27.4991 32.0476 27.4843L27.8619 26.8702L25.9921 23.041C25.9418 22.9547 25.8701 22.8833 25.7841 22.8336C25.698 22.7839 25.6006 22.7578 25.5015 22.7578C25.4024 22.7578 25.3051 22.7839 25.219 22.8336C25.133 22.8833 25.0613 22.9547 25.011 23.041L23.1396 26.8702L18.9522 27.4821C18.8512 27.4969 18.7563 27.5399 18.6782 27.6064C18.6002 27.6728 18.5421 27.76 18.5106 27.858C18.4791 27.956 18.4754 28.061 18.4999 28.1611C18.5244 28.2611 18.5761 28.3523 18.6492 28.4242L21.6778 31.4063L20.9608 35.6171C20.9436 35.7187 20.9549 35.8231 20.9933 35.9185C21.0318 36.0139 21.0959 36.0966 21.1785 36.1572C21.261 36.2177 21.3587 36.2537 21.4605 36.2612C21.5622 36.2686 21.664 36.2471 21.7544 36.1992L25.4999 34.2116L29.2433 36.1997C29.3337 36.2483 29.4358 36.2703 29.538 36.2632C29.6402 36.256 29.7384 36.2201 29.8213 36.1593C29.9042 36.0986 29.9686 36.0156 30.0071 35.9197C30.0456 35.8238 30.0566 35.719 30.039 35.6171L29.3242 31.4074L32.3528 28.4253C32.4253 28.3532 32.4764 28.2622 32.5005 28.1624C32.5245 28.0626 32.5205 27.958 32.489 27.8603ZM28.3524 30.8198C28.2891 30.8823 28.2417 30.9593 28.2144 31.0444C28.187 31.1294 28.1805 31.2199 28.1955 31.308L28.7713 34.7009L25.7542 33.0994C25.6758 33.0578 25.5885 33.0361 25.4999 33.0361C25.4113 33.0361 25.324 33.0578 25.2456 33.0994L22.2285 34.7009L22.8044 31.308C22.8193 31.2199 22.8128 31.1294 22.7855 31.0444C22.7581 30.9593 22.7107 30.8823 22.6474 30.8198L20.2062 28.4165L23.5793 27.9194C23.6671 27.9067 23.7506 27.8725 23.8224 27.8198C23.8942 27.7672 23.9523 27.6977 23.9916 27.6174L25.4999 24.5331L27.0082 27.6196C27.0475 27.6999 27.1056 27.7694 27.1774 27.8221C27.2492 27.8747 27.3327 27.9089 27.4205 27.9216L30.7937 28.4187L28.3524 30.8198Z" fill="black"/>
</g>
<defs>
<clipPath id="clip0_1_386">
<rect width="35" height="37" fill="white" transform="translate(8 15)"/>
</clipPath>
</defs>
</svg>
